<?xml version="1.0" standalone="no"?>
<!DOCTYPE svg PUBLIC "-//W3C//DTD SVG 20010904//EN"
 "http://www.w3.org/TR/2001/REC-SVG-20010904/DTD/svg10.dtd">
<svg version="1.0" xmlns="http://www.w3.org/2000/svg"
 width="1280.000000pt" height="922.000000pt" viewBox="0 0 1280.000000 922.000000"
 preserveAspectRatio="xMidYMid meet">
<metadata>
Created by potrace 1.15, written by Peter Selinger 2001-2017
</metadata>
<g transform="translate(0.000000,922.000000) scale(0.100000,-0.100000)"
fill="#000000" stroke="none">
<path d="M1 9193 c1 -23 2 -24 6 -6 3 17 13 23 41 26 l37 4 -42 1 c-41 2 -43
1 -42 -25z"/>
<path d="M167 9203 c18 -2 50 -2 70 0 21 2 7 4 -32 4 -38 0 -55 -2 -38 -4z"/>
<path d="M333 9193 c20 -2 54 -2 75 0 20 2 3 4 -38 4 -41 0 -58 -2 -37 -4z"/>
<path d="M503 9183 c20 -2 54 -2 75 0 20 2 3 4 -38 4 -41 0 -58 -2 -37 -4z"/>
<path d="M673 9173 c20 -2 54 -2 75 0 20 2 3 4 -38 4 -41 0 -58 -2 -37 -4z"/>
<path d="M855 9163 c55 -5 75 -16 75 -45 0 -22 -39 -78 -55 -78 -6 0 -28 -17
-48 -38 -31 -32 -37 -45 -37 -82 0 -29 -7 -54 -20 -70 -27 -34 -25 -47 12 -80
22 -20 34 -42 39 -72 l6 -43 2 37 c1 29 -6 46 -31 74 -30 34 -31 36 -8 25 14
-7 39 -26 55 -42 184 -176 249 -228 263 -215 3 3 0 6 -6 6 -6 0 -76 58 -155
129 -79 71 -154 132 -166 136 l-22 7 21 32 c11 20 20 51 20 74 0 32 7 49 31
77 17 19 37 35 44 35 7 0 18 7 25 15 10 13 17 12 51 -5 21 -11 39 -18 39 -15
0 2 -15 12 -32 21 -43 22 -41 19 -27 43 10 14 10 28 3 48 -9 26 -13 28 -69 29
-53 1 -54 1 -10 -3z"/>
<path d="M11 9155 c1 -19 18 -51 18 -35 0 8 -4 22 -9 30 -5 8 -9 11 -9 5z"/>
<path d="M31 9100 c-1 -3 6 -23 14 -45 8 -22 14 -31 14 -20 0 17 -28 80 -28
65z"/>
<path d="M1000 9015 c0 -3 36 -23 80 -45 44 -22 80 -38 80 -35 0 3 -36 23 -80
45 -44 22 -80 38 -80 35z"/>
<path d="M66 8975 c3 -23 18 -56 35 -77 31 -39 39 -88 15 -88 -8 0 -17 -7 -20
-16 -14 -36 -5 -73 27 -112 17 -22 43 -59 56 -81 14 -22 26 -39 29 -37 5 5
-45 82 -80 124 -35 40 -38 96 -8 112 29 15 25 60 -7 99 -16 18 -34 52 -40 75
l-13 41 6 -40z"/>
<path d="M1170 8925 c0 -3 41 -25 90 -50 50 -25 90 -43 90 -40 0 3 -40 25 -90
50 -49 25 -90 43 -90 40z"/>
<path d="M1360 8825 c0 -3 36 -23 80 -45 44 -22 80 -38 80 -35 0 3 -36 23 -80
45 -44 22 -80 38 -80 35z"/>
<path d="M1530 8735 c0 -3 41 -25 90 -50 50 -25 90 -43 90 -40 0 3 -40 25 -90
50 -49 25 -90 43 -90 40z"/>
<path d="M792 8610 c-20 -35 -21 -41 -7 -72 8 -18 14 -27 15 -20 0 7 -5 22
-11 33 -8 16 -5 27 12 55 12 19 20 37 17 39 -2 2 -13 -14 -26 -35z"/>
<path d="M1720 8635 c0 -3 36 -23 80 -45 44 -22 80 -38 80 -35 0 3 -36 23 -80
45 -44 22 -80 38 -80 35z"/>
<path d="M213 8515 c0 -22 2 -30 4 -17 2 12 2 30 0 40 -3 9 -5 -1 -4 -23z"/>
<path d="M1890 8545 c0 -3 41 -25 90 -50 50 -25 90 -43 90 -40 0 3 -40 25 -90
50 -49 25 -90 43 -90 40z"/>
<path d="M1168 8533 c18 -2 45 -2 60 0 15 2 0 4 -33 4 -33 0 -45 -2 -27 -4z"/>
<path d="M1283 8481 c12 -27 23 -45 25 -41 3 9 -35 90 -43 90 -2 0 6 -22 18
-49z"/>
<path d="M781 8484 c0 -11 3 -14 6 -6 3 7 2 16 -1 19 -3 4 -6 -2 -5 -13z"/>
<path d="M202 8440 c-2 -42 15 -67 48 -72 21 -2 25 -9 28 -43 2 -29 9 -45 25
-54 21 -13 22 -13 5 6 -10 11 -18 32 -18 47 0 40 -16 65 -38 59 -24 -6 -39 14
-45 57 l-4 35 -1 -35z"/>
<path d="M775 8415 c3 -29 14 -62 26 -79 15 -20 19 -36 15 -60 -4 -22 -3 -27
4 -16 16 24 12 62 -9 84 -11 12 -24 44 -30 71 l-10 50 4 -50z"/>
<path d="M2080 8445 c0 -3 36 -23 80 -45 44 -22 80 -38 80 -35 0 3 -36 23 -80
45 -44 22 -80 38 -80 35z"/>
<path d="M3514 8417 c-3 -8 -3 -56 -2 -108 l3 -94 5 108 c3 59 4 107 2 107 -1
0 -5 -6 -8 -13z"/>
<path d="M1310 8412 c0 -12 41 -33 63 -31 7 0 -1 5 -18 11 -16 6 -33 16 -37
22 -5 8 -8 7 -8 -2z"/>
<path d="M3673 8413 c48 -2 125 -2 170 0 45 1 6 3 -88 3 -93 0 -130 -2 -82 -3z"/>
<path d="M4030 8403 c33 -3 62 -11 74 -21 26 -24 127 -148 151 -187 11 -17 40
-49 65 -71 25 -21 48 -43 52 -49 4 -5 22 -32 40 -59 47 -70 94 -115 177 -170
55 -36 77 -57 92 -89 10 -23 16 -31 13 -17 -11 44 -33 69 -104 116 -85 56
-114 83 -165 158 -22 32 -68 86 -102 119 -35 33 -63 64 -63 70 0 5 -15 26 -32
47 -18 20 -55 65 -83 98 l-50 61 -60 -1 -60 -2 55 -3z"/>
<path d="M1410 8369 c13 -6 39 -21 57 -35 18 -14 33 -23 33 -20 0 11 -83 66
-99 65 -10 0 -6 -4 9 -10z"/>
<path d="M2250 8355 c0 -8 141 -76 149 -73 4 2 -28 20 -71 40 -43 20 -78 35
-78 33z"/>
<path d="M1491 8284 c0 -11 3 -14 6 -6 3 7 2 16 -1 19 -3 4 -6 -2 -5 -13z"/>
<path d="M2458 8273 c17 -2 47 -2 65 0 17 2 3 4 -33 4 -36 0 -50 -2 -32 -4z"/>
<path d="M2583 8263 c15 -2 39 -2 55 0 15 2 2 4 -28 4 -30 0 -43 -2 -27 -4z"/>
<path d="M1481 8238 c0 -15 -5 -30 -11 -33 -17 -10 -12 -138 6 -161 15 -18 15
-18 5 3 -14 28 -14 146 0 160 6 6 9 21 6 34 -4 22 -4 22 -6 -3z"/>
<path d="M2708 8253 c18 -2 45 -2 60 0 15 2 0 4 -33 4 -33 0 -45 -2 -27 -4z"/>
<path d="M277 8243 c-7 -12 -20 -79 -14 -73 6 6 27 80 22 80 -2 0 -6 -3 -8 -7z"/>
<path d="M300 8239 c0 -5 5 -7 10 -4 6 3 10 8 10 11 0 2 -4 4 -10 4 -5 0 -10
-5 -10 -11z"/>
<path d="M2833 8243 c15 -2 37 -2 50 0 12 2 0 4 -28 4 -27 0 -38 -2 -22 -4z"/>
<path d="M2948 8233 c18 -2 45 -2 60 0 15 2 0 4 -33 4 -33 0 -45 -2 -27 -4z"/>
<path d="M3073 8223 c15 -2 39 -2 55 0 15 2 2 4 -28 4 -30 0 -43 -2 -27 -4z"/>
<path d="M791 8215 c-1 -5 8 -32 19 -60 10 -27 19 -43 19 -35 0 17 -38 110
-38 95z"/>
<path d="M3198 8213 l32 -4 0 -79 c0 -56 4 -83 15 -94 10 -10 16 -38 17 -83
l2 -68 3 65 c3 40 -1 73 -9 89 -8 14 -13 57 -13 102 l0 79 -40 -2 c-37 -1 -37
-2 -7 -5z"/>
<path d="M3298 8203 c23 -2 59 -2 80 0 20 2 1 4 -43 4 -44 0 -61 -2 -37 -4z"/>
<path d="M3485 8200 c-19 -8 -19 -9 3 -9 12 -1 22 4 22 9 0 6 -1 10 -2 9 -2 0
-12 -4 -23 -9z"/>
<path d="M270 8156 c0 -4 9 -19 20 -33 13 -17 20 -20 20 -11 0 8 -9 23 -20 33
-11 10 -20 15 -20 11z"/>
<path d="M807 8055 c-4 -27 -9 -63 -12 -80 -3 -16 2 -7 10 20 8 28 14 64 12
80 -1 23 -4 18 -10 -20z"/>
<path d="M311 8082 c-1 -7 5 -23 11 -35 7 -12 15 -76 19 -142 l5 -120 2 110
c1 87 -3 119 -18 155 -10 25 -19 39 -19 32z"/>
<path d="M1490 8018 c0 -4 11 -28 25 -54 14 -26 25 -41 25 -33 -1 14 -50 100
-50 87z"/>
<path d="M802 7900 c-1 -26 5 -53 13 -64 8 -11 15 -31 15 -45 1 -30 30 -69 79
-105 42 -32 121 -126 160 -193 17 -29 40 -57 51 -63 11 -6 20 -20 20 -32 0
-12 5 -49 11 -82 22 -121 19 -113 33 -93 15 20 32 22 39 5 4 -10 6 -10 6 0 1
18 -27 26 -43 13 -11 -9 -15 -2 -19 36 -15 120 -20 138 -47 164 -15 14 -36 41
-45 59 -25 48 -108 146 -176 208 -44 40 -59 60 -59 81 0 14 -6 36 -14 47 -8
11 -16 40 -19 65 l-4 44 -1 -45z"/>
<path d="M1542 7880 c-1 -19 6 -46 14 -60 10 -16 13 -18 8 -5 -4 11 -10 38
-14 60 l-7 40 -1 -35z"/>
<path d="M3278 7800 c2 -47 6 -87 8 -89 7 -8 2 124 -6 149 -4 14 -5 -13 -2
-60z"/>
<path d="M1571 7774 c0 -11 3 -14 6 -6 3 7 2 16 -1 19 -3 4 -6 -2 -5 -13z"/>
<path d="M350 7754 c0 -17 55 -89 86 -112 112 -84 173 -132 203 -162 23 -24
30 -28 22 -13 -6 13 -35 40 -64 62 -116 86 -203 163 -224 199 -13 20 -23 32
-23 26z"/>
<path d="M1582 7690 c0 -19 2 -27 5 -17 2 9 2 25 0 35 -3 9 -5 1 -5 -18z"/>
<path d="M3288 7570 c-17 -276 -20 -300 -39 -311 -16 -8 -19 -28 -22 -192 -3
-100 -9 -216 -15 -257 -6 -41 -11 -81 -11 -88 -1 -11 -21 -13 -106 -7 -62 4
-105 4 -105 -2 0 -5 9 -50 20 -101 26 -119 74 -218 112 -231 30 -11 34 -21 17
-38 -9 -9 -7 -16 6 -29 15 -16 17 -33 13 -137 l-4 -119 27 -20 c27 -20 27 -21
12 -64 -13 -39 -31 -56 -151 -149 -106 -80 -139 -101 -145 -89 -4 8 -16 14
-27 14 -13 0 -20 9 -23 28 -3 22 -4 19 -6 -11 -1 -35 0 -37 24 -31 23 6 25 3
25 -25 0 -29 -3 -31 -35 -31 -30 0 -36 -4 -41 -27 -4 -16 -20 -54 -37 -86 -16
-31 -28 -59 -26 -61 4 -4 64 115 73 147 4 11 15 17 34 17 19 0 35 9 49 28 11
15 79 71 150 126 112 85 132 104 142 138 13 42 35 58 54 39 6 -6 32 -11 58
-11 59 0 79 -17 120 -100 29 -58 32 -75 35 -168 1 -60 8 -109 14 -117 7 -8 28
-17 49 -21 63 -11 72 -20 65 -63 -5 -34 -3 -41 24 -62 22 -18 31 -35 35 -71 4
-27 2 -50 -3 -53 -6 -3 -9 -21 -9 -38 l2 -32 6 35 c7 41 31 48 112 31 97 -21
157 33 144 130 -6 42 -4 52 20 83 23 30 26 42 21 71 -10 52 0 71 44 89 48 19
60 40 60 105 0 39 4 53 19 61 34 18 82 11 118 -16 19 -14 50 -30 69 -35 30 -9
94 -63 94 -81 0 -13 46 -23 120 -25 177 -4 185 -5 218 -40 58 -63 93 -39 163
114 25 55 39 75 60 82 38 13 96 -2 128 -33 15 -14 32 -26 39 -26 27 0 79 -34
101 -66 13 -18 31 -36 40 -39 22 -7 71 -83 71 -111 0 -12 -9 -57 -20 -100 -14
-56 -17 -89 -11 -109 8 -27 9 -25 9 20 1 28 8 75 17 105 29 107 20 129 -94
239 l-61 60 -40 280 c-22 154 -40 290 -40 302 0 33 328 555 357 568 21 10 49
56 101 166 10 22 22 63 25 90 8 55 31 93 68 112 16 9 19 13 8 13 -30 0 -77
-65 -84 -117 -7 -51 -33 -131 -45 -138 -4 -3 -19 -29 -34 -58 -15 -32 -36 -58
-51 -65 -14 -6 -25 -8 -25 -3 0 5 -24 14 -52 21 -35 8 -65 24 -88 46 -19 18
-48 36 -63 40 -16 3 -35 17 -44 30 -8 13 -19 24 -24 24 -20 0 46 -59 72 -65
16 -4 39 -20 52 -36 16 -21 39 -34 77 -44 29 -8 57 -18 61 -22 5 -5 -66 -128
-158 -273 -130 -206 -166 -272 -164 -295 2 -29 66 -492 76 -548 4 -25 3 -28
-17 -21 -13 4 -39 20 -59 36 -29 23 -47 29 -87 30 -30 1 -58 -4 -67 -12 -14
-12 -75 -129 -75 -145 0 -15 -54 -75 -67 -75 -9 0 -33 16 -55 35 -31 29 -47
36 -81 36 -233 4 -231 3 -276 59 -22 27 -44 43 -74 51 -23 6 -57 24 -75 40
-37 32 -45 34 -93 17 -44 -15 -49 -23 -49 -84 0 -50 -19 -84 -47 -84 -6 0 -23
-10 -38 -22 -25 -19 -27 -26 -22 -68 5 -40 2 -53 -20 -85 -21 -31 -24 -45 -19
-81 12 -90 -46 -146 -127 -123 -17 5 -46 9 -63 9 -35 0 -44 13 -44 64 0 25 -7
36 -31 50 -29 17 -31 22 -25 57 6 36 4 41 -26 59 -18 11 -45 20 -60 20 -34 0
-40 18 -43 134 -3 100 -28 172 -80 234 -23 28 -33 32 -75 32 -40 0 -112 27
-149 57 -2 1 -3 59 -2 127 1 82 -2 126 -9 131 -6 4 -8 15 -5 24 8 26 -3 48
-29 55 -28 7 -90 136 -106 221 -6 33 -14 68 -17 78 -4 17 3 17 100 11 l105 -7
6 69 c4 38 12 87 18 109 6 23 10 112 9 207 -2 156 -1 167 17 172 17 6 21 23
32 179 6 94 10 192 8 217 -1 25 -6 -11 -10 -80z"/>
<path d="M4701 7674 c0 -11 3 -14 6 -6 3 7 2 16 -1 19 -3 4 -6 -2 -5 -13z"/>
<path d="M1590 7648 c0 -4 11 -28 25 -54 14 -26 25 -41 25 -33 0 14 -49 100
-50 87z"/>
<path d="M4716 7630 c7 -28 46 -91 53 -85 2 3 -1 11 -8 19 -6 8 -21 31 -32 52
-12 24 -17 30 -13 14z"/>
<path d="M1641 7524 c0 -11 3 -14 6 -6 3 7 2 16 -1 19 -3 4 -6 -2 -5 -13z"/>
<path d="M1191 7517 c-6 -6 -11 -20 -10 -31 1 -20 2 -18 15 22 3 9 14 5 39
-14 19 -14 35 -24 35 -21 0 2 -15 16 -34 30 -25 19 -36 23 -45 14z"/>
<path d="M4772 7485 c0 -27 6 -68 14 -90 9 -26 11 -30 7 -10 -3 17 -9 57 -13
90 l-7 60 -1 -50z"/>
<path d="M1676 7423 c21 -38 43 -75 50 -83 7 -9 22 -36 33 -60 11 -25 21 -38
21 -30 0 8 -11 33 -24 55 -14 22 -43 73 -65 113 -23 39 -44 72 -47 72 -3 0 12
-30 32 -67z"/>
<path d="M1271 7455 c1 -19 18 -51 18 -35 0 8 -4 22 -9 30 -5 8 -9 11 -9 5z"/>
<path d="M670 7433 c0 -3 18 -25 40 -49 22 -24 40 -41 40 -37 0 3 -18 25 -40
49 -22 24 -40 41 -40 37z"/>
<path d="M1200 7426 c0 -4 11 -17 25 -29 13 -12 36 -44 50 -71 14 -27 25 -43
25 -37 0 19 -47 94 -75 121 -14 13 -25 20 -25 16z"/>
<path d="M1309 7366 c26 -41 29 -111 5 -102 -8 3 -12 2 -9 -4 3 -6 13 -10 21
-10 22 0 18 76 -7 116 -11 19 -23 34 -26 34 -2 0 5 -15 16 -34z"/>
<path d="M5711 7344 c-19 -13 -30 -24 -24 -24 5 0 24 11 43 25 43 32 26 31
-19 -1z"/>
<path d="M4800 7346 c0 -5 11 -28 25 -51 27 -48 67 -78 89 -69 9 3 16 2 16 -4
0 -13 98 -92 114 -92 6 0 -3 9 -20 19 -17 11 -48 36 -68 56 -20 20 -41 33 -46
30 -17 -10 -51 19 -81 70 -16 28 -29 46 -29 41z"/>
<path d="M5843 7343 c26 -2 68 -2 95 0 26 2 4 3 -48 3 -52 0 -74 -1 -47 -3z"/>
<path d="M5638 7333 c6 -2 18 -2 25 0 6 3 1 5 -13 5 -14 0 -19 -2 -12 -5z"/>
<path d="M6000 7330 c8 -5 26 -10 40 -10 16 0 41 -17 75 -53 29 -32 66 -59 87
-66 26 -9 60 -38 111 -94 60 -66 79 -95 96 -147 20 -60 80 -177 81 -157 0 5
-11 27 -24 50 -14 23 -36 76 -51 117 -22 66 -35 84 -102 152 -47 47 -91 83
-113 90 -19 6 -54 32 -78 59 -43 48 -49 51 -107 63 -22 5 -26 4 -15 -4z"/>
<path d="M750 7322 c0 -36 76 -161 126 -208 30 -28 54 -48 54 -43 0 4 -21 25
-47 46 -35 29 -57 60 -90 127 -23 49 -43 84 -43 78z"/>
<path d="M1644 7295 c-18 -14 -17 -14 9 -4 30 14 83 -2 72 -21 -9 -15 -12
-121 -3 -107 5 7 7 30 6 53 -1 22 2 45 5 51 8 13 -29 43 -53 43 -9 0 -25 -7
-36 -15z"/>
<path d="M1617 7241 c-4 -18 -7 -43 -6 -55 1 -11 5 -1 10 24 5 25 7 49 6 55
-2 5 -7 -5 -10 -24z"/>
<path d="M1785 7180 c3 -33 12 -65 25 -82 18 -25 26 -42 69 -158 26 -72 36
-84 93 -113 39 -20 47 -21 29 -7 -13 11 -29 20 -35 20 -21 0 -62 53 -79 100
-33 97 -48 132 -67 158 -11 15 -24 52 -30 82 l-9 55 4 -55z"/>
<path d="M1234 7170 c1 -9 11 -15 26 -15 14 0 31 -4 38 -8 6 -5 12 -4 12 1 0
14 -25 22 -48 15 -12 -3 -22 1 -25 9 -3 9 -4 8 -3 -2z"/>
<path d="M1302 7110 c0 -14 2 -19 5 -12 2 6 2 18 0 25 -3 6 -5 1 -5 -13z"/>
<path d="M1614 7111 c1 -8 16 -24 34 -34 32 -19 33 -19 47 -1 8 11 14 26 14
34 -1 13 -1 13 -6 0 -13 -36 -24 -40 -54 -23 -15 9 -30 22 -32 27 -2 6 -3 4
-3 -3z"/>
<path d="M1311 7050 c-2 -51 44 -120 80 -120 35 0 39 -13 39 -116 l0 -85 -42
5 c-66 9 -485 56 -498 56 -7 0 -3 11 8 28 11 15 22 49 25 76 3 30 1 43 -4 35
-5 -8 -9 -29 -9 -47 0 -45 -50 -115 -104 -147 -37 -21 -55 -25 -127 -25 -58 1
-90 5 -103 15 -11 8 -36 14 -55 14 -36 -1 -36 -2 7 -8 23 -4 48 -13 54 -19 7
-7 45 -12 97 -12 89 0 123 12 177 62 22 19 23 19 289 -11 147 -17 271 -31 276
-31 4 0 9 -30 11 -67 3 -58 6 -69 25 -78 35 -18 115 -113 123 -148 8 -30 8
-31 9 -5 1 32 -87 144 -125 158 -24 9 -24 10 -24 162 0 186 -2 196 -43 200
-38 4 -68 43 -78 100 -6 43 -7 43 -8 8z"/>
<path d="M2021 6785 c1 -19 18 -51 18 -35 0 8 -4 22 -9 30 -5 8 -9 11 -9 5z"/>
<path d="M6491 6774 c0 -12 6 -27 15 -35 9 -7 36 -52 60 -101 39 -77 76 -120
91 -105 2 3 -4 8 -15 12 -13 3 -39 41 -68 98 -26 51 -53 97 -60 102 -7 6 -14
19 -17 30 -4 19 -5 19 -6 -1z"/>
<path d="M2040 6725 c0 -32 121 -155 152 -155 6 0 -12 15 -38 33 -27 18 -64
55 -81 81 -18 27 -33 45 -33 41z"/>
<path d="M460 6713 c0 -4 47 -57 104 -117 99 -103 105 -112 103 -149 -1 -33 4
-43 28 -63 44 -35 48 -29 9 10 -28 28 -33 39 -28 63 5 26 -2 37 -53 89 -32 32
-82 85 -110 117 -29 32 -53 55 -53 50z"/>
<path d="M2290 6537 c51 -18 62 -27 57 -48 -3 -11 -1 -19 4 -19 16 0 10 36 -8
52 -10 9 -34 18 -53 21 l-35 6 35 -12z"/>
<path d="M6690 6505 c37 -45 63 -110 57 -137 -4 -13 -21 -34 -38 -47 -28 -21
-36 -23 -64 -12 -17 6 -38 11 -47 11 -20 0 -82 -79 -84 -107 -1 -29 -21 -51
-61 -68 -18 -8 -51 -29 -73 -47 -31 -26 -39 -39 -38 -63 l1 -30 4 28 c5 29 91
107 119 107 25 0 66 48 59 69 -3 12 6 33 27 60 34 42 34 42 104 26 26 -6 36
-2 69 29 31 29 41 34 52 24 13 -10 10 -16 -16 -37 -22 -18 -33 -38 -38 -64 -5
-33 -2 -42 25 -68 19 -18 34 -46 38 -67 4 -21 13 -49 20 -64 19 -36 18 -84 -1
-92 -8 -3 -15 -14 -15 -25 0 -20 39 -74 40 -55 0 6 -7 17 -15 24 -8 7 -15 18
-15 25 0 7 7 18 15 25 19 16 19 63 1 98 -7 15 -17 46 -21 70 -5 31 -15 49 -37
65 -26 19 -29 27 -25 60 5 38 38 76 67 77 23 0 108 -77 113 -103 4 -21 4 -21
6 -1 1 21 -41 65 -122 127 -21 15 -37 35 -37 43 0 24 -46 107 -71 129 -22 19
-22 19 1 -10z"/>
<path d="M2304 6456 c-3 -8 4 -24 15 -35 12 -12 21 -32 21 -45 0 -13 8 -30 18
-37 14 -11 15 -11 5 1 -7 8 -13 24 -13 36 0 12 -9 33 -21 48 -11 14 -17 30
-14 36 3 5 4 10 0 10 -3 0 -8 -6 -11 -14z"/>
<path d="M1591 6385 c1 -19 18 -51 18 -35 0 8 -4 22 -9 30 -5 8 -9 11 -9 5z"/>
<path d="M777 6344 c17 -9 38 -30 46 -46 9 -20 32 -39 59 -52 36 -18 45 -28
59 -68 20 -61 45 -88 80 -88 33 0 49 23 49 69 0 31 14 42 23 19 3 -8 6 -6 6 5
1 11 -6 17 -19 17 -16 0 -20 -7 -20 -34 0 -51 -9 -66 -40 -66 -32 0 -55 24
-65 67 -9 45 -39 80 -80 93 -19 6 -35 18 -35 25 0 19 -58 75 -78 75 -10 0 -3
-7 15 -16z"/>
<path d="M2377 6299 c4 -13 8 -18 11 -10 2 7 -1 18 -6 23 -8 8 -9 4 -5 -13z"/>
<path d="M1611 6298 c-1 -17 53 -68 72 -68 7 0 -3 9 -21 20 -18 11 -37 30 -42
43 -6 15 -9 17 -9 5z"/>
<path d="M2375 6253 c-4 -13 9 -32 49 -70 30 -29 60 -53 68 -53 7 0 4 6 -7 12
-44 23 -105 92 -99 110 7 23 -2 24 -11 1z"/>
<path d="M1231 6185 c-1 -11 -10 -35 -21 -53 -32 -52 -25 -88 30 -147 15 -16
40 -48 54 -69 33 -49 122 -126 144 -126 10 1 4 7 -13 15 -35 16 -89 68 -148
144 -87 110 -91 126 -56 185 11 19 19 43 16 53 -4 16 -5 15 -6 -2z"/>
<path d="M1677 6193 c-12 -11 -7 -27 14 -53 l21 -25 -16 27 c-20 35 -20 45 2
51 14 4 14 5 1 6 -9 0 -19 -2 -22 -6z"/>
<path d="M1183 6155 c-12 -19 -19 -35 -15 -35 4 0 17 16 30 35 12 19 19 35 15
35 -5 -1 -18 -16 -30 -35z"/>
<path d="M6911 6166 c-8 -13 -11 -30 -8 -38 3 -8 6 -5 6 8 1 11 6 25 13 32 6
6 9 14 7 17 -3 3 -11 -6 -18 -19z"/>
<path d="M1100 6151 c0 -10 39 -46 43 -40 2 2 -7 14 -20 26 -13 12 -23 19 -23
14z"/>
<path d="M2530 6139 c-12 -8 -11 -9 6 -5 28 8 67 -59 58 -100 -6 -32 29 -94
56 -101 10 -3 9 -1 -3 7 -27 17 -49 69 -42 97 4 17 -2 39 -20 69 -28 47 -32
49 -55 33z"/>
<path d="M1715 6093 c4 -14 0 -32 -9 -45 -9 -12 -16 -27 -16 -33 0 -13 68 -95
79 -95 14 0 11 61 -4 97 -16 38 -13 83 5 83 13 0 75 -98 83 -132 4 -14 18 -40
32 -56 28 -34 32 -77 10 -106 -8 -11 -14 -34 -14 -50 1 -29 2 -29 9 7 4 21 12
43 19 50 18 18 13 69 -10 93 -11 12 -26 37 -33 56 -6 18 -25 56 -41 83 -42 72
-58 81 -77 41 -8 -19 -7 -34 6 -66 18 -45 21 -80 7 -80 -6 0 -22 16 -37 36
-28 35 -28 36 -10 69 14 26 16 37 7 52 -11 16 -11 16 -6 -4z"/>
<path d="M6915 6065 c3 -16 10 -46 14 -65 7 -28 9 -30 10 -10 0 14 -6 43 -15
65 -11 30 -13 32 -9 10z"/>
<path d="M6380 6001 c-8 -6 -18 -7 -22 -5 -4 3 -8 -5 -8 -17 l0 -22 25 23 25
23 26 -24 c45 -41 66 -77 59 -99 -13 -41 -77 -93 -123 -102 -37 -6 -55 -19
-101 -67 -31 -32 -63 -61 -71 -63 -13 -4 -12 -12 5 -54 17 -40 27 -51 55 -60
30 -10 38 -20 57 -70 12 -33 22 -73 22 -91 1 -21 9 -38 25 -50 13 -11 33 -37
44 -60 37 -72 115 -147 186 -179 80 -35 89 -60 19 -50 -27 4 -78 9 -115 13
-65 5 -68 5 -97 -25 l-31 -30 0 -151 0 -151 -47 0 c-46 0 -50 2 -96 60 -27 33
-51 60 -54 60 -6 0 3 -12 60 -82 36 -45 42 -48 85 -48 l47 0 -42 -36 c-24 -20
-73 -84 -114 -150 l-71 -114 -147 -107 c-80 -59 -174 -134 -208 -167 -62 -58
-63 -60 -63 -111 0 -32 5 -57 14 -64 7 -6 16 -36 19 -66 5 -50 12 -62 84 -149
93 -113 107 -117 178 -56 54 47 86 51 110 13 15 -22 16 -30 5 -47 -7 -11 -14
-63 -17 -117 -3 -81 -8 -105 -29 -143 -14 -25 -30 -46 -34 -46 -5 0 -17 13
-26 29 -26 43 -58 58 -96 43 -37 -14 -62 2 -73 46 -7 28 -103 152 -117 152 -5
0 7 -17 26 -37 56 -62 74 -88 82 -119 3 -16 14 -35 23 -42 15 -12 14 -14 -3
-24 -10 -5 -25 -20 -35 -31 -63 -80 -111 -100 -186 -78 -65 21 -113 24 -161
12 -53 -13 -68 -6 -90 44 -11 24 -13 26 -14 9 0 -32 52 -76 82 -69 23 6 25 4
21 -19 -3 -14 0 -39 6 -56 14 -42 -8 -85 -68 -130 l-46 -35 -120 -1 c-72 0
-138 -6 -164 -14 l-44 -14 -29 33 c-33 37 -33 57 0 133 10 24 25 59 32 78 32
89 41 102 63 95 55 -17 73 -16 91 4 16 18 17 25 7 47 -15 34 0 54 40 54 36 0
59 41 66 120 5 53 4 58 -22 78 -51 41 -93 23 -135 -56 -31 -58 -60 -63 -74
-15 -7 25 -4 45 11 85 22 60 20 84 -7 93 -33 11 -58 -11 -65 -57 -10 -65 -15
-78 -31 -78 -29 0 -8 102 31 149 29 34 31 48 9 79 -10 15 -25 22 -48 22 -62 0
-85 -57 -46 -115 31 -47 26 -62 -31 -91 -28 -14 -53 -23 -56 -21 -2 3 3 19 11
36 10 19 15 53 15 93 l-2 63 -7 -70 c-3 -38 -13 -81 -21 -95 l-14 -25 -3 29
c-3 26 -6 28 -36 23 -40 -6 -51 0 -60 35 -8 34 -34 42 -121 36 -45 -3 -73 -10
-93 -25 -24 -18 -32 -19 -57 -9 l-29 12 42 46 c41 44 49 68 36 103 -8 21 -116
75 -149 75 -14 0 -25 3 -25 8 0 4 -25 34 -55 67 -31 34 -62 80 -71 105 -9 25
-26 68 -39 95 -13 28 -26 75 -29 105 -4 30 -18 92 -31 136 -20 65 -35 93 -71
133 -25 28 -53 51 -62 51 -9 0 -28 -12 -43 -26 -48 -46 -89 -7 -89 85 -1 48
-31 113 -80 168 -63 71 -114 186 -114 255 -1 43 -3 52 -9 35 -13 -33 0 -105
28 -155 14 -24 25 -50 25 -56 0 -6 23 -37 50 -70 67 -78 81 -107 90 -190 6
-55 13 -74 30 -88 30 -24 44 -23 76 7 15 14 30 25 34 25 17 0 62 -45 86 -86
28 -48 74 -208 74 -258 0 -17 11 -50 24 -73 13 -23 27 -57 31 -75 8 -37 54
-105 104 -153 l33 -32 -27 -42 c-26 -38 -27 -46 -21 -111 6 -74 -1 -91 -28
-61 -17 19 -104 57 -111 49 -3 -2 18 -12 45 -22 53 -19 59 -26 35 -46 -8 -7
-15 -17 -15 -22 0 -6 9 0 19 13 19 23 20 23 34 5 22 -30 32 -3 32 90 0 66 4
86 19 103 26 28 64 27 130 -6 44 -21 55 -32 60 -57 5 -25 1 -36 -28 -65 -19
-20 -37 -46 -40 -58 -6 -18 -1 -23 28 -33 31 -10 39 -9 66 12 24 18 48 24 105
26 l74 4 18 -38 c17 -36 22 -39 56 -37 34 2 37 0 39 -25 2 -47 -3 -75 -23
-133 l-21 -56 37 -58 c40 -62 41 -69 30 -160 -7 -60 -7 -60 29 -94 27 -27 36
-43 36 -68 0 -20 -6 -36 -14 -39 -17 -6 -76 22 -76 36 0 6 -11 10 -24 10 -35
0 -46 -53 -18 -83 11 -12 25 -32 31 -45 13 -25 7 -38 -31 -72 -13 -11 -18 -34
-20 -80 -3 -59 -5 -65 -26 -68 -38 -6 -52 15 -52 75 0 50 -3 57 -37 88 -75 68
-119 70 -158 7 -14 -21 -33 -35 -60 -43 -35 -10 -57 -28 -94 -75 -11 -14 -9
-104 3 -97 4 3 6 21 3 40 -8 50 26 100 77 114 21 6 48 22 60 36 65 78 74 79
145 23 49 -39 51 -42 51 -91 0 -62 13 -89 45 -89 49 0 55 8 55 75 0 50 4 65
21 81 35 32 41 50 26 86 -8 18 -21 39 -29 46 -16 13 -13 62 4 62 6 0 24 -11
40 -26 20 -16 40 -24 57 -22 22 3 26 8 29 41 3 31 -3 45 -33 79 -35 41 -36 44
-28 98 11 82 8 94 -30 157 l-35 58 23 70 c23 70 24 70 87 101 l63 31 3 -33 c3
-28 7 -34 27 -34 25 0 29 8 40 77 7 46 26 68 50 59 19 -7 19 -44 -1 -91 -15
-36 -13 -94 4 -122 13 -21 67 14 81 52 13 37 54 75 80 75 28 0 61 -38 61 -69
0 -16 -7 -52 -17 -80 -15 -46 -19 -51 -46 -51 -39 0 -56 -24 -50 -71 5 -31 2
-38 -16 -44 -11 -3 -37 -1 -56 6 -19 7 -37 10 -40 7 -14 -14 -105 -252 -105
-274 0 -30 50 -84 78 -84 11 0 36 7 55 15 25 10 48 12 79 7 24 -4 75 -6 113
-3 61 5 77 11 122 44 67 49 85 87 70 145 -8 31 -8 48 -1 60 15 23 68 27 115 8
83 -34 171 -12 210 51 22 35 103 83 141 83 19 0 78 -70 78 -93 0 -8 -7 -20
-16 -28 -43 -36 -56 -105 -25 -133 30 -27 36 -72 15 -104 -23 -37 -98 -124
-160 -187 -28 -29 -53 -59 -57 -68 -3 -8 5 -30 19 -48 31 -42 30 -80 -2 -118
-20 -24 -31 -30 -50 -25 -15 4 -34 0 -49 -10 -13 -9 -34 -16 -46 -16 -11 0
-35 -16 -52 -35 -29 -33 -33 -35 -78 -29 -47 6 -48 6 -62 -28 l-15 -35 -76 5
c-70 4 -79 3 -101 -18 -50 -47 -20 -100 54 -100 46 0 119 -32 128 -57 3 -8 -2
-30 -12 -48 -31 -59 11 -135 77 -135 36 0 41 -12 24 -54 -17 -42 -60 -66 -116
-66 -36 0 -48 -7 -105 -60 -35 -33 -69 -60 -73 -60 -5 0 -21 9 -36 21 -19 15
-35 19 -54 15 -59 -14 -57 -16 -54 49 3 42 -2 75 -16 110 l-20 50 -88 7 c-83
7 -91 5 -126 -17 -62 -41 -116 -49 -197 -31 -80 18 -121 13 -121 -14 0 -10 -2
-25 -5 -32 -4 -9 8 -21 32 -33 57 -29 62 -29 21 -1 -29 20 -37 33 -36 52 l3
26 70 -7 c132 -14 167 -11 226 22 50 28 60 30 132 25 l77 -4 21 -47 c17 -37
20 -58 15 -105 -3 -32 -2 -64 3 -70 5 -7 2 -34 -10 -71 -10 -33 -18 -78 -18
-100 l2 -40 7 45 c3 25 14 70 24 101 13 46 23 59 46 69 25 11 33 9 56 -9 15
-12 35 -21 46 -21 10 0 48 27 83 60 59 55 68 60 109 60 36 0 52 6 80 30 38 34
55 82 36 105 -7 8 -27 14 -47 13 -24 -1 -40 5 -49 17 -16 22 -19 91 -4 100 16
10 12 51 -7 67 -32 28 -81 48 -118 48 -70 0 -92 31 -59 79 16 22 21 23 99 19
l82 -6 15 31 c14 29 18 31 62 28 42 -2 49 1 78 33 17 20 41 36 52 36 12 1 32
7 46 15 14 8 28 14 32 15 4 0 33 -25 65 -55 50 -47 64 -55 97 -55 31 0 44 6
71 35 42 46 65 39 65 -19 0 -82 70 -142 101 -85 10 19 16 21 63 14 28 -3 59
-8 69 -9 9 -1 29 -11 45 -22 40 -30 162 -51 201 -35 16 7 32 19 35 27 4 10 24
14 72 14 66 0 66 0 110 48 24 26 44 55 44 66 0 16 5 17 32 12 18 -3 45 -18 60
-32 19 -19 34 -25 52 -22 30 6 60 -22 70 -64 17 -73 126 -97 126 -29 0 36 6
40 38 32 20 -6 31 -19 43 -50 20 -56 43 -69 79 -47 43 25 69 21 76 -11 3 -16
10 -41 15 -57 7 -21 5 -34 -5 -45 -11 -13 -11 -30 -3 -91 15 -103 14 -189 -2
-228 -17 -41 -29 -40 -64 3 -15 19 -34 35 -41 35 -13 0 -26 78 -26 152 0 33
-44 98 -66 98 -8 0 -19 -12 -25 -27 -5 -14 -26 -44 -45 -66 -38 -41 -38 -40
-18 -134 10 -53 -4 -98 -46 -150 -46 -55 -62 -63 -107 -53 -34 8 -43 3 -84
-53 -19 -25 -25 -27 -65 -21 -41 6 -47 4 -84 -30 -61 -55 -83 -49 -122 29 -43
86 -42 102 8 200 44 86 45 88 42 178 -2 85 0 95 26 140 16 27 34 74 41 105 7
31 16 71 19 87 5 21 4 26 -2 15 -6 -8 -17 -48 -25 -88 -10 -45 -27 -90 -43
-114 -27 -38 -28 -46 -26 -135 2 -91 1 -96 -38 -175 -24 -50 -54 -93 -75 -111
-40 -32 -47 -76 -20 -127 22 -42 11 -60 -39 -60 -42 0 -77 11 -159 49 -33 15
-52 19 -60 13 -8 -7 -28 -7 -58 0 -41 9 -52 8 -91 -12 l-44 -22 -40 27 c-35
24 -45 26 -94 20 -30 -4 -61 -12 -67 -17 -16 -13 -17 -62 -2 -89 17 -32 1 -55
-51 -78 l-50 -22 0 -60 0 -61 -27 6 c-16 3 -49 10 -76 16 -26 5 -56 14 -67 20
-10 5 -27 10 -37 10 -22 -1 71 -32 145 -50 45 -10 60 -9 109 6 31 10 51 20 45
22 -6 2 -20 -1 -31 -7 -41 -22 -51 -14 -51 39 0 48 1 49 43 68 63 28 72 43 57
96 -19 67 -9 82 56 90 43 5 62 3 85 -11 16 -10 29 -21 29 -25 0 -14 47 -9 59
6 18 21 58 28 101 16 27 -7 46 -7 59 -1 17 10 41 1 143 -50 10 -5 42 -9 72 -9
65 0 76 17 51 75 -21 53 -19 91 7 109 25 18 38 13 38 -17 0 -12 15 -49 33 -82
41 -77 67 -83 126 -30 37 34 42 36 89 29 l50 -6 26 41 c26 41 28 42 77 39 44
-3 50 -6 56 -28 8 -36 32 -60 59 -60 13 0 26 -5 29 -10 4 -6 36 -29 72 -52 53
-33 64 -45 59 -61 -3 -12 3 -35 15 -53 24 -40 69 -58 107 -42 15 6 43 12 62
14 19 2 56 6 82 10 44 6 49 4 89 -34 49 -45 49 -72 -1 -72 -17 0 -30 -5 -31
-12 -3 -82 -8 -139 -14 -165 -5 -24 -2 -39 12 -60 11 -15 26 -48 33 -72 10
-30 34 -64 75 -105 l60 -61 0 -63 0 -63 -50 -44 c-27 -24 -53 -44 -57 -45 -4
0 -21 -27 -38 -59 -16 -33 -38 -65 -47 -71 -16 -10 -15 -11 5 -7 12 3 22 1 22
-4 0 -12 63 -39 87 -38 10 1 1 5 -19 11 -20 5 -43 17 -52 27 -14 15 -13 21 9
66 26 53 69 101 97 111 34 11 59 68 54 126 -4 60 -26 100 -75 132 -29 20 -71
92 -71 123 0 9 -10 27 -22 40 -20 22 -21 26 -9 73 7 27 12 66 11 87 -3 59 -2
63 24 63 28 0 51 24 42 45 -4 12 4 15 39 15 36 0 50 -5 67 -25 26 -30 68 -33
92 -6 19 21 12 45 -18 71 -9 7 -16 21 -16 30 0 19 44 60 64 60 6 0 20 -24 31
-52 13 -35 29 -58 48 -68 26 -14 28 -14 50 12 28 34 118 78 144 72 30 -8 182
92 189 125 18 80 26 101 39 101 7 0 34 -31 59 -69 25 -37 51 -73 58 -78 27
-22 137 -53 186 -53 47 0 53 -3 67 -30 19 -37 19 -94 0 -110 -24 -20 -18 -76
15 -134 17 -30 37 -60 45 -66 26 -21 63 -2 154 80 l89 79 11 -62 c18 -94 18
-94 77 -127 30 -18 66 -47 80 -66 l26 -34 230 0 229 0 -6 -38 c-14 -83 -18
-95 -48 -129 -28 -32 -32 -45 -38 -116 -7 -75 -6 -83 17 -112 28 -37 30 -61 9
-85 -15 -16 -11 -20 49 -45 36 -15 67 -34 70 -41 3 -8 11 -14 17 -14 25 0 -25
39 -77 60 -30 12 -54 24 -54 25 0 2 6 15 14 31 16 30 11 47 -22 77 -18 17 -20
27 -15 95 5 67 10 82 37 114 31 35 56 105 56 152 0 25 50 76 74 76 37 0 65 85
38 112 -19 19 -14 25 32 37 25 6 48 17 53 23 4 7 7 51 5 97 -2 67 1 88 14 103
26 28 76 23 113 -11 27 -25 31 -36 31 -81 0 -29 7 -66 15 -84 13 -27 26 -35
88 -54 66 -21 107 -22 107 -3 0 4 18 32 40 61 24 32 40 65 40 81 0 20 14 42
49 78 48 49 52 51 106 51 31 0 66 -5 78 -11 36 -19 151 -131 166 -161 8 -16
25 -31 40 -34 44 -10 71 -33 71 -58 0 -17 10 -31 33 -45 17 -11 48 -36 67 -56
54 -57 117 -97 140 -90 11 4 20 2 20 -4 0 -6 21 -22 48 -37 59 -34 89 -61 113
-99 11 -16 19 -24 19 -18 0 21 -71 93 -111 114 -21 10 -47 29 -58 40 -12 13
-26 19 -36 15 -20 -7 -57 18 -137 91 -50 46 -54 52 -35 56 13 2 6 5 -15 6 -35
1 -38 3 -38 30 0 31 -34 61 -68 61 -19 0 -52 29 -52 46 0 15 -132 141 -167
158 -18 9 -55 16 -83 16 -50 0 -54 -2 -106 -58 -38 -41 -54 -65 -54 -85 0 -30
-83 -157 -102 -157 -19 0 -133 43 -146 55 -7 7 -15 38 -18 71 -3 32 -10 71
-15 85 -13 33 -58 59 -103 59 -53 0 -70 -32 -63 -117 7 -88 -2 -107 -55 -125
l-43 -15 -110 118 c-60 65 -115 131 -120 147 -6 16 -16 36 -23 45 -12 14 -10
17 15 23 15 3 38 13 51 21 15 9 28 11 39 4 20 -11 59 2 88 29 11 11 31 29 44
41 30 28 15 46 -26 30 l-28 -11 32 6 c26 4 32 3 27 -9 -3 -8 -16 -19 -30 -25
-13 -7 -24 -16 -24 -22 0 -18 -62 -39 -82 -29 -12 7 -25 5 -40 -4 -13 -8 -43
-20 -68 -26 -25 -7 -55 -17 -68 -22 -36 -14 -95 -11 -120 7 -12 8 -22 11 -22
6 0 -18 59 -34 102 -28 105 16 103 16 128 -50 6 -17 50 -71 98 -120 113 -115
155 -169 155 -200 0 -25 -28 -64 -46 -64 -5 0 -22 -11 -39 -25 l-30 -25 -228
0 -229 0 -28 34 c-15 18 -52 48 -80 66 -55 33 -62 46 -78 148 -4 23 -9 42 -12
42 -6 0 -68 -54 -140 -121 -32 -29 -51 -39 -75 -39 -30 0 -36 5 -66 59 -35 64
-39 96 -17 125 21 28 19 85 -5 124 -18 30 -24 32 -72 32 -80 0 -183 44 -210
89 -12 20 -37 55 -56 79 -33 41 -35 42 -53 26 -11 -9 -19 -28 -19 -41 0 -25
-15 -31 -23 -9 -3 8 -17 22 -31 31 -25 16 -27 16 -57 -9 -41 -35 -55 -33 -78
12 -7 13 -28 30 -46 38 -60 25 -64 47 -32 193 10 46 21 70 38 82 54 40 60 48
49 69 -8 16 -21 20 -57 20 -57 0 -109 30 -117 68 -6 26 1 50 73 246 31 84 26
104 -30 127 -42 16 -49 16 -68 3 -11 -8 -21 -20 -21 -26 0 -6 -7 -19 -16 -29
-12 -14 -21 -15 -43 -8 -34 12 -51 46 -51 100 0 34 5 43 29 57 52 30 47 67
-11 86 -30 10 -33 15 -36 56 -2 24 -8 50 -14 57 -16 19 -46 16 -60 -7 -7 -11
-21 -20 -31 -20 -10 0 -22 -12 -28 -27 -20 -50 -41 -88 -57 -100 -23 -19 -141
-17 -148 1 -8 22 26 73 57 86 35 15 88 70 91 95 1 11 -4 41 -11 67 -13 46 -31
70 -83 113 -23 19 -26 31 -32 125 -9 117 -12 130 -33 130 -23 0 -11 108 18
159 22 39 23 40 49 26 15 -8 30 -21 33 -28 12 -32 49 -27 86 11 30 30 86 61
112 62 4 0 16 -28 29 -62 26 -74 81 -151 143 -202 58 -48 65 -79 26 -124 -25
-28 -29 -41 -29 -90 1 -37 8 -69 20 -92 11 -19 19 -30 19 -25 0 6 -6 21 -14
35 -8 14 -14 49 -15 79 0 44 5 59 30 91 26 33 28 41 20 71 -7 22 -24 44 -48
61 -54 38 -115 122 -141 193 -12 33 -27 65 -34 70 -22 18 -41 79 -42 135 0 30
-4 67 -9 83 -7 22 -3 34 19 62 14 20 24 41 22 48 -4 9 -6 9 -6 -1 -1 -7 -13
-29 -28 -48 -24 -33 -25 -38 -14 -69 7 -20 9 -49 5 -70 -4 -26 -1 -48 12 -76
20 -46 12 -72 -25 -77 -11 -2 -33 -19 -47 -38 -15 -19 -35 -34 -46 -34 -26 0
-98 59 -98 81 0 26 -54 84 -91 100 -25 10 -43 10 -88 1 -69 -15 -151 -15 -185
-2 -14 5 -39 31 -56 57 -38 63 -85 93 -147 97 -55 4 -163 35 -163 48 0 4 -1
11 -1 15 -1 4 11 15 27 24 51 27 40 83 -15 81 -33 -1 -38 7 -20 25 7 7 9 19 6
27 -5 13 -12 14 -33 6 -33 -13 -39 -8 -24 20 10 18 8 24 -14 41 -49 39 -21 72
51 62 49 -6 54 1 72 97 13 67 33 100 60 100 9 0 31 9 49 20 40 25 43 60 6 87
-24 18 -27 26 -31 114 -5 79 -9 99 -29 126 -22 29 -23 33 -8 45 9 7 31 27 49
44 28 26 44 33 99 39 65 6 66 7 76 43 5 20 10 54 10 74 0 47 27 106 53 114 10
3 39 3 64 -1 45 -7 46 -6 95 47 59 63 74 84 82 120 5 21 2 28 -15 33 -21 7
-22 11 -15 97 4 66 2 98 -8 123 -15 35 -20 37 -101 50 -63 11 -233 113 -272
164 -7 9 -13 34 -13 57 0 44 -12 60 -67 88 -18 9 -33 23 -33 31 0 7 -4 16 -9
19 -4 3 -6 -5 -4 -17 3 -14 23 -32 54 -49 48 -27 49 -29 49 -74 0 -40 5 -50
36 -79 63 -58 77 -68 123 -93 25 -13 59 -31 75 -40 16 -8 51 -17 77 -20 76 -7
85 -23 81 -153 -3 -93 -1 -109 12 -109 40 0 9 -74 -61 -145 -36 -37 -44 -40
-81 -37 -23 2 -53 1 -67 -2 -34 -9 -61 -66 -69 -146 -3 -35 -10 -68 -14 -72
-4 -4 -36 -11 -70 -14 -52 -6 -67 -12 -87 -35 -13 -16 -28 -29 -33 -29 -5 0
-17 -9 -27 -20 -17 -19 -17 -21 7 -57 21 -31 27 -53 31 -126 4 -78 8 -92 31
-116 14 -15 26 -32 26 -37 0 -17 -32 -40 -70 -53 -44 -14 -55 -32 -71 -112
-17 -85 -23 -91 -74 -83 -32 4 -46 2 -58 -11 -19 -18 -22 -41 -7 -50 5 -3 7
-12 3 -21 -4 -11 -14 -13 -39 -8 -26 5 -35 2 -40 -10 -9 -23 -31 -20 -40 6 -3
11 -6 42 -5 67 1 25 2 55 2 66 1 49 -19 144 -38 185 -18 37 -22 60 -20 132 l2
87 -47 48 -48 49 0 156 0 156 32 27 c29 25 37 27 90 21 192 -20 182 -20 175
-1 -4 9 -7 19 -7 21 0 2 -26 16 -57 29 -85 38 -120 69 -178 159 -28 44 -59 87
-68 95 -10 7 -17 24 -17 38 0 13 -7 40 -15 60 -8 19 -15 43 -15 53 0 22 -27
45 -62 54 -19 4 -30 16 -40 43 -7 21 -13 40 -13 43 0 3 32 35 72 73 56 52 79
67 102 67 48 0 131 84 131 134 0 13 -87 106 -99 106 -3 0 -13 -4 -21 -9z m30
-1376 l45 -46 -2 -92 c-1 -62 2 -98 11 -112 27 -41 38 -101 42 -211 1 -63 6
-123 9 -134 8 -24 43 -27 52 -4 4 12 14 14 39 10 18 -4 35 -2 39 4 15 24 27 9
21 -26 l-7 -35 35 7 c36 6 51 -8 21 -20 -13 -4 -14 -10 -5 -26 8 -16 15 -18
29 -11 13 7 24 6 36 -3 23 -17 15 -49 -14 -56 -34 -8 -50 -36 -31 -54 21 -20
106 -47 170 -53 66 -7 111 -37 140 -93 11 -22 33 -46 50 -55 35 -18 142 -20
206 -4 38 10 51 9 85 -7 45 -20 79 -57 79 -86 0 -11 -8 -32 -19 -46 -23 -33
-41 -95 -41 -144 0 -38 -25 -73 -109 -156 -33 -33 -36 -50 -17 -102 3 -8 2
-22 -3 -30 -9 -12 -12 -12 -28 2 -10 10 -36 23 -58 30 -34 11 -44 22 -70 73
-39 78 -62 83 -115 25 l-39 -42 -33 20 c-29 17 -36 18 -63 6 -42 -19 -78 -17
-106 4 -13 11 -35 22 -49 25 -14 3 -47 20 -73 38 -52 34 -91 34 -102 -1 -11
-35 -49 -53 -95 -45 -32 5 -50 18 -90 63 l-51 57 -116 5 c-70 3 -118 9 -120
16 -2 6 8 27 22 48 17 25 25 50 25 81 0 24 4 55 10 69 6 17 6 35 -1 53 -8 22
-6 32 11 55 l20 27 -31 36 c-17 19 -37 35 -45 35 -8 0 -31 -15 -51 -34 -42
-37 -75 -56 -96 -56 -15 0 -140 144 -163 188 -8 15 -14 46 -14 68 0 25 -6 47
-15 54 -9 8 -15 30 -15 60 0 47 1 49 73 111 40 35 134 109 209 164 136 100
136 100 204 210 56 92 132 183 154 185 3 0 26 -20 50 -45z m-1398 -802 c24
-22 23 -42 -6 -72 -14 -15 -29 -42 -34 -61 -9 -32 -10 -33 -11 -8 -1 15 -10
42 -21 60 -11 18 -20 43 -20 55 0 40 58 57 92 26z m1178 -533 l105 -1 35 -44
c45 -57 69 -73 120 -81 38 -6 43 -4 81 36 l41 43 125 -64 125 -64 17 -53 18
-53 -24 -19 c-16 -13 -34 -17 -51 -14 -27 6 -53 -14 -158 -116 -16 -17 -40
-30 -52 -30 -58 0 -114 -60 -92 -99 5 -11 10 -38 10 -61 0 -56 30 -110 90
-162 54 -47 63 -74 28 -87 -13 -5 -40 -23 -62 -40 -21 -17 -48 -31 -60 -30
-46 1 -133 25 -167 46 -23 15 -60 25 -106 29 -66 6 -72 5 -82 -15 -16 -28 -35
-27 -60 5 -14 18 -21 41 -21 69 0 66 -50 89 -76 36 -29 -58 -85 -57 -150 4
l-47 45 21 20 c31 29 53 76 45 97 -4 10 -17 32 -31 50 l-24 32 69 75 c193 213
196 219 147 291 -30 44 -27 68 14 127 20 28 32 37 47 33 11 -2 67 -5 125 -5z
m1243 -23 c3 -8 8 -60 12 -116 4 -57 13 -107 19 -112 6 -5 25 -20 43 -34 30
-24 63 -96 63 -138 0 -30 -38 -76 -81 -97 -49 -25 -76 -73 -60 -106 9 -20 18
-24 54 -24 24 0 58 5 75 11 35 12 82 68 82 97 0 32 23 44 48 26 37 -25 29 -68
-27 -144 -27 -37 -54 -83 -60 -101 -6 -19 -25 -74 -41 -124 -16 -49 -30 -105
-30 -122 0 -22 -10 -44 -29 -65 -27 -31 -30 -32 -68 -20 -40 12 -63 42 -63 82
0 51 -44 67 -95 34 -31 -20 -42 -13 -66 42 -30 72 -99 84 -99 18 0 -17 -7 -25
-25 -30 -39 -10 -54 2 -80 60 -27 61 -38 71 -77 68 -17 -1 -34 6 -47 19 -10
11 -36 26 -56 33 l-37 13 60 54 c65 59 78 80 87 149 3 25 13 57 23 72 83 125
90 134 113 135 13 1 40 9 59 16 19 8 54 21 77 27 23 7 52 24 64 36 21 22 21
27 9 64 l-13 40 49 52 c27 29 58 62 69 75 23 26 40 29 48 10z m-329 -126 c26
-54 33 -61 87 -84 33 -14 59 -30 59 -35 0 -6 -19 -13 -42 -17 -24 -4 -60 -16
-80 -26 -21 -11 -48 -19 -62 -19 -21 0 -56 -39 -75 -85 -2 -5 -16 -24 -31 -41
-18 -21 -30 -49 -34 -80 -9 -60 -25 -114 -35 -114 -4 0 -33 -23 -64 -51 -39
-35 -57 -58 -57 -74 0 -21 -45 -85 -75 -107 -5 -4 -30 -7 -55 -7 -25 1 -37 3
-28 6 20 5 32 36 24 61 -4 9 -25 30 -47 46 -52 36 -79 81 -79 129 0 21 -6 52
-14 70 -22 53 1 89 62 100 22 5 62 33 118 82 68 61 89 74 108 69 16 -4 32 2
54 20 27 23 29 30 21 56 -29 96 -29 88 3 101 25 10 35 9 66 -5 l36 -18 27 30
c28 31 57 51 75 52 6 0 23 -27 38 -59z m649 -366 c8 -49 28 -74 58 -75 23 0
40 -23 30 -39 -5 -7 -19 -18 -32 -25 -20 -9 -24 -20 -27 -61 -3 -59 13 -95 51
-113 33 -16 60 -4 79 35 16 34 34 38 82 18 37 -16 38 -17 32 -57 -4 -22 -15
-57 -26 -77 -36 -71 -73 -197 -66 -224 10 -43 70 -81 127 -81 43 0 49 -2 49
-21 0 -14 -10 -24 -30 -32 -35 -13 -42 -28 -66 -144 -22 -108 -16 -136 35
-156 21 -8 45 -26 52 -40 23 -43 46 -48 86 -20 43 31 58 26 84 -24 l20 -39
-28 -26 c-15 -14 -41 -33 -58 -41 -16 -9 -41 -24 -55 -35 -14 -11 -33 -17 -45
-14 -27 7 -118 -36 -150 -70 l-25 -27 -26 23 c-13 14 -30 44 -36 67 -13 53
-40 58 -81 15 -33 -34 -33 -48 -2 -86 46 -57 -17 -93 -69 -41 -20 19 -35 25
-71 25 -37 0 -54 6 -85 31 -36 30 -43 31 -92 25 -29 -4 -66 -8 -83 -10 -16 -1
-41 -7 -55 -13 -32 -14 -76 3 -103 39 -21 28 -16 48 12 48 10 0 26 9 36 20 9
10 37 27 60 36 l43 16 4 65 c2 35 -1 72 -6 81 -20 34 -24 103 -9 134 20 39 28
139 15 176 -9 28 -8 32 15 47 33 22 64 13 94 -29 37 -51 109 -108 128 -100 9
4 34 10 56 14 39 6 155 76 155 93 0 5 -7 1 -16 -7 -8 -9 -19 -16 -23 -16 -5 0
-25 -13 -46 -30 -26 -21 -49 -30 -74 -30 -21 0 -42 -5 -48 -11 -13 -13 -43 10
-119 90 -53 55 -64 58 -116 36 -16 -6 -18 -1 -18 43 0 28 4 53 10 57 5 3 25
-1 44 -9 33 -14 37 -13 68 8 18 12 37 35 42 51 6 17 11 32 13 34 1 2 18 -10
38 -28 20 -17 42 -31 49 -31 7 0 21 -9 32 -21 10 -12 37 -30 59 -41 22 -11 55
-34 73 -51 17 -17 32 -28 32 -23 0 11 -52 55 -91 76 -19 10 -42 26 -49 35 -8
9 -34 27 -59 41 -25 13 -56 32 -68 43 l-22 19 18 63 c41 142 62 191 110 260
53 75 64 119 39 158 -9 15 -9 23 2 36 21 25 34 12 43 -40z m-557 -653 c16 -21
23 -48 28 -119 l7 -91 -70 -4 -69 -3 -6 30 c-3 17 -8 44 -11 60 -6 26 0 37 34
77 23 25 41 53 41 62 0 24 22 18 46 -12z m89 -254 c15 -18 36 -36 46 -40 14
-6 19 -18 19 -47 0 -22 5 -43 10 -46 6 -3 10 -36 10 -74 l0 -67 -52 -27 c-29
-15 -60 -32 -69 -39 -13 -9 -24 -5 -58 20 -22 18 -59 46 -80 62 -22 17 -49 30
-60 30 -20 0 -51 24 -51 40 0 5 -3 15 -6 23 -3 9 14 38 40 70 25 31 48 69 52
84 10 39 19 43 101 43 68 0 72 -1 98 -32z"/>
<path d="M6942 5922 c-1 -31 4 -53 19 -74 12 -16 24 -27 27 -24 3 4 -4 16 -16
29 -13 13 -22 39 -25 67 l-4 45 -1 -43z"/>
<path d="M2685 5920 c11 -5 35 -9 53 -9 22 -1 41 -10 59 -28 14 -16 24 -22 21
-14 -8 26 -52 49 -103 54 -33 4 -43 3 -30 -3z"/>
<path d="M2820 5845 c0 -5 5 -17 10 -25 5 -8 10 -10 10 -5 0 6 -5 17 -10 25
-5 8 -10 11 -10 5z"/>
<path d="M1483 5775 c37 -19 62 -50 82 -103 10 -24 19 -41 21 -39 3 2 -4 24
-15 49 -21 50 -74 108 -99 108 -11 0 -6 -6 11 -15z"/>
<path d="M7025 5758 c10 -6 30 -24 43 -40 18 -21 33 -28 59 -28 23 0 60 -13
99 -35 34 -19 68 -35 74 -35 6 0 -22 18 -64 40 -45 24 -89 40 -109 40 -26 0
-41 8 -64 35 -17 19 -37 35 -45 35 -7 0 -5 -5 7 -12z"/>
<path d="M1894 5695 c2 -16 0 -37 -4 -45 -8 -15 17 -86 27 -77 2 2 -3 17 -11
32 -10 19 -12 34 -6 45 5 10 5 29 0 46 l-10 29 4 -30z"/>
<path d="M1973 5630 c-39 -23 -45 -63 -12 -80 11 -7 22 -10 23 -8 15 20 46 78
43 78 -3 0 -15 -16 -27 -35 -18 -29 -25 -33 -36 -24 -23 19 -16 47 16 64 17 9
30 18 30 20 0 7 -2 6 -37 -15z"/>
<path d="M1590 5594 c0 -16 5 -36 10 -44 6 -10 7 -2 3 25 -7 49 -13 58 -13 19z"/>
<path d="M7328 5613 c7 -3 16 -2 19 1 4 3 -2 6 -13 5 -11 0 -14 -3 -6 -6z"/>
<path d="M7415 5576 c33 -18 71 -36 85 -40 14 -4 -10 11 -53 33 -93 49 -117
54 -32 7z"/>
<path d="M1920 5530 c1 -8 7 -24 15 -34 19 -25 19 -16 0 20 -8 16 -15 22 -15
14z"/>
<path d="M7553 5523 c15 -2 37 -2 50 0 12 2 0 4 -28 4 -27 0 -38 -2 -22 -4z"/>
<path d="M7716 5523 c23 -3 35 -12 47 -39 20 -41 54 -45 102 -14 17 11 26 20
20 20 -5 -1 -19 -7 -29 -15 -34 -26 -65 -19 -87 20 -17 29 -26 35 -52 33 l-32
-1 31 -4z"/>
<path d="M1596 5505 c-3 -9 -6 -22 -5 -28 0 -7 5 -1 10 12 5 13 8 26 5 28 -2
2 -6 -3 -10 -12z"/>
<path d="M2761 5474 c0 -11 3 -14 6 -6 3 7 2 16 -1 19 -3 4 -6 -2 -5 -13z"/>
<path d="M1577 5441 c-4 -17 -3 -21 5 -13 5 5 8 16 6 23 -3 8 -7 3 -11 -10z"/>
<path d="M7922 5430 c0 -19 2 -27 5 -17 2 9 2 25 0 35 -3 9 -5 1 -5 -18z"/>
<path d="M1950 5439 c0 -4 15 -20 34 -36 32 -26 35 -34 47 -118 8 -62 19 -101
36 -125 12 -19 23 -31 23 -26 0 4 -8 20 -18 34 -11 16 -24 63 -31 117 -12 85
-14 91 -52 126 -21 20 -39 32 -39 28z"/>
<path d="M1568 5385 c-24 -32 -23 -40 3 -14 11 11 19 24 17 29 -2 4 -11 -2
-20 -15z"/>
<path d="M2795 5385 c17 -8 39 -14 50 -14 11 0 0 7 -25 15 -56 17 -64 17 -25
-1z"/>
<path d="M2960 5359 c51 -31 99 -79 121 -121 11 -21 32 -45 47 -55 15 -9 37
-26 50 -37 15 -13 21 -15 17 -6 -3 8 -26 28 -50 45 -25 16 -50 43 -56 59 -18
41 -124 136 -154 136 -5 0 6 -10 25 -21z"/>
<path d="M7893 5322 c-49 -73 -63 -108 -63 -152 0 -44 -14 -80 -31 -80 -5 0
-23 16 -40 35 -33 38 -70 47 -68 18 0 -11 3 -13 6 -5 8 21 31 13 60 -23 15
-19 33 -35 40 -35 22 0 43 44 43 88 0 45 25 103 67 160 14 18 23 35 21 37 -2
2 -18 -17 -35 -43z"/>
<path d="M5270 5331 c0 -10 -15 -41 -34 -68 -19 -27 -42 -72 -51 -98 -15 -45
-15 -53 0 -90 8 -23 31 -57 50 -75 19 -19 35 -41 35 -50 0 -9 8 -24 18 -33 19
-18 156 -77 177 -77 20 0 63 57 74 97 11 38 6 61 -4 27 -4 -10 -15 -38 -26
-61 -15 -36 -24 -43 -46 -43 -64 0 -183 63 -183 96 0 7 -13 25 -29 41 -79 79
-79 150 -3 267 28 44 41 86 27 86 -3 0 -5 -8 -5 -19z"/>
<path d="M1542 5309 c-1 -24 -14 -51 -37 -82 -24 -31 -35 -56 -35 -79 0 -19
-4 -38 -9 -43 -5 -6 -12 -21 -15 -35 -4 -15 2 -9 14 14 11 22 20 53 20 69 0
18 13 44 36 72 30 37 35 50 31 82 l-4 38 -1 -36z"/>
<path d="M3642 5230 c0 -19 2 -27 5 -17 2 9 2 25 0 35 -3 9 -5 1 -5 -18z"/>
<path d="M2134 5125 c-3 -14 -3 -36 0 -50 9 -36 0 -31 -23 13 -11 20 -20 32
-21 26 0 -6 11 -28 25 -48 32 -47 31 -67 -2 -117 -25 -38 -26 -41 -13 -94 7
-30 15 -53 18 -51 2 3 -2 27 -9 55 -12 48 -11 51 14 90 15 22 27 52 27 67 0
23 2 25 16 14 12 -11 18 -10 32 3 15 16 15 19 -2 52 -11 19 -21 33 -23 31 -2
-2 4 -17 14 -34 15 -26 16 -33 5 -44 -11 -11 -17 -9 -33 11 -23 28 -23 88 -1
83 8 -1 11 2 7 8 -11 17 -24 11 -31 -15z"/>
<path d="M1516 5114 c-3 -9 -6 -35 -6 -59 0 -79 -21 -98 -45 -42 -8 17 -14 25
-15 16 0 -9 9 -27 19 -40 28 -34 45 -13 51 64 3 37 9 60 15 57 6 -3 9 -16 7
-28 -4 -28 13 -51 45 -63 12 -4 29 -23 37 -41 8 -18 53 -73 100 -122 47 -49
86 -93 86 -97 0 -4 25 -25 56 -45 54 -36 96 -83 181 -202 23 -32 63 -76 88
-98 25 -21 66 -58 91 -80 24 -23 44 -39 44 -35 -1 14 -58 70 -86 84 -48 25
-119 108 -215 253 -16 25 -41 46 -101 87 -21 14 -54 45 -74 69 -20 23 -63 71
-96 106 -32 34 -64 75 -69 91 -6 17 -24 34 -45 45 -33 15 -36 19 -30 50 5 26
3 35 -10 40 -21 8 -21 8 -28 -10z"/>
<path d="M3194 5107 c-3 -8 11 -43 31 -78 20 -35 40 -71 45 -79 4 -9 21 -15
39 -15 36 0 46 -19 36 -71 -3 -19 -2 -34 3 -34 5 0 28 -18 50 -40 22 -22 43
-40 47 -40 4 0 -15 21 -43 48 -43 41 -49 51 -45 78 7 47 -10 72 -46 66 -26 -4
-32 0 -44 30 -8 19 -27 54 -41 77 -15 24 -25 49 -22 57 3 8 3 14 0 14 -2 0 -7
-6 -10 -13z"/>
<path d="M7677 5061 c-4 -18 -7 -43 -6 -55 1 -11 5 -1 10 24 5 25 7 49 6 55
-2 5 -7 -5 -10 -24z"/>
<path d="M5590 5013 c-19 -8 -37 -17 -39 -18 -6 -6 36 -69 63 -94 24 -23 26
-31 26 -115 0 -129 0 -129 -79 -154 -63 -20 -74 -21 -179 -11 l-112 11 -43
-38 c-165 -147 -176 -160 -193 -230 -16 -61 -16 -68 -1 -100 l17 -34 -50 -25
c-73 -37 -111 -97 -121 -194 -4 -42 -8 -103 -7 -136 1 -37 5 -8 12 75 12 131
13 137 47 182 21 29 52 55 82 69 26 12 47 24 47 26 0 2 -7 18 -16 35 -10 19
-14 42 -10 61 19 93 25 102 131 201 l106 98 112 -11 c108 -12 115 -11 187 12
l75 24 3 112 3 112 -41 49 c-22 26 -40 54 -40 62 0 22 69 41 131 35 65 -6 171
-41 192 -65 64 -72 89 -93 115 -98 21 -4 34 -16 45 -40 17 -36 41 -42 82 -23
15 7 10 8 -18 4 -34 -6 -39 -3 -58 30 -12 19 -25 35 -31 35 -27 0 -79 35 -101
69 -16 23 -40 43 -68 55 -24 10 -59 24 -77 32 -42 18 -147 17 -192 -3z"/>
<path d="M7682 4960 c0 -14 2 -19 5 -12 2 6 2 18 0 25 -3 6 -5 1 -5 -13z"/>
<path d="M7690 4895 c0 -5 5 -17 10 -25 5 -8 10 -10 10 -5 0 6 -5 17 -10 25
-5 8 -10 11 -10 5z"/>
<path d="M2257 4863 c-15 -14 -7 -63 12 -72 22 -12 31 -5 31 24 0 24 -32 59
-43 48z m31 -46 c3 -21 0 -26 -12 -21 -19 7 -22 58 -3 52 6 -3 13 -17 15 -31z"/>
<path d="M7711 4834 c0 -11 3 -14 6 -6 3 7 2 16 -1 19 -3 4 -6 -2 -5 -13z"/>
<path d="M2121 4760 c0 -19 54 -81 91 -103 15 -9 39 -17 53 -17 20 0 25 5 25
26 0 14 5 34 11 45 8 17 13 18 25 8 17 -14 53 -80 65 -119 5 -17 8 -19 8 -7 1
24 -42 107 -67 130 -19 18 -20 18 -36 -5 -9 -12 -16 -33 -16 -45 0 -57 -120
11 -152 86 -5 13 -7 14 -7 1z"/>
<path d="M3475 4743 c23 -6 55 -32 55 -45 0 -11 -47 -10 -71 2 -16 9 -19 7
-19 -10 0 -13 12 -27 31 -38 67 -36 128 -92 138 -125 5 -17 10 -24 10 -14 2
36 -34 77 -101 120 -71 44 -86 62 -43 51 14 -3 37 -3 51 0 l27 7 -29 30 c-15
16 -37 28 -48 28 -20 -1 -20 -1 -1 -6z"/>
<path d="M2467 4733 c-13 -13 -7 -59 13 -91 19 -31 40 -36 40 -9 0 8 -3 7 -9
-2 -7 -11 -13 -7 -25 17 -9 17 -16 43 -16 58 0 22 2 25 15 14 8 -7 19 -27 24
-44 5 -17 10 -23 10 -13 1 20 -29 77 -39 77 -4 0 -10 -3 -13 -7z"/>
<path d="M7707 4623 c-17 -161 -19 -188 -14 -183 7 7 30 230 24 236 -2 3 -7
-21 -10 -53z"/>
<path d="M2400 4564 c1 -12 20 -36 45 -54 11 -8 7 1 -10 20 -16 19 -31 37 -32
39 -2 2 -3 0 -3 -5z"/>
<path d="M2493 4480 c20 -16 27 -31 29 -58 l1 -37 4 33 c5 36 -8 57 -41 73
-13 6 -11 2 7 -11z"/>
<path d="M3611 4457 c-1 -10 9 -21 23 -27 13 -4 33 -21 45 -36 11 -15 21 -22
21 -17 0 13 -53 63 -67 63 -6 0 -14 8 -16 18 -4 16 -5 16 -6 -1z"/>
<path d="M7683 4350 c0 -36 2 -50 4 -32 2 17 2 47 0 65 -2 17 -4 3 -4 -33z"/>
<path d="M2533 4353 c10 -11 30 -24 45 -28 46 -11 52 -23 52 -96 0 -56 -5 -75
-25 -106 -28 -44 -31 -46 -67 -74 -16 -11 -28 -24 -28 -29 0 -8 20 8 67 51 43
41 63 90 63 154 0 82 -4 92 -48 106 -21 6 -46 19 -57 28 -20 16 -20 16 -2 -6z"/>
<path d="M3701 4345 c0 -11 8 -33 19 -50 11 -16 20 -25 20 -20 0 6 -6 19 -14
30 -7 11 -16 29 -19 40 l-5 20 -1 -20z"/>
<path d="M2270 4259 c0 -13 5 -31 10 -39 7 -11 8 -5 4 20 -8 43 -14 51 -14 19z"/>
<path d="M7692 4240 c-1 -25 5 -67 13 -95 9 -30 13 -36 9 -15 -3 19 -9 62 -14
95 -7 57 -7 58 -8 15z"/>
<path d="M3740 4253 c0 -5 21 -38 46 -74 25 -35 52 -80 60 -99 8 -19 20 -38
27 -42 13 -8 38 -28 106 -86 24 -20 52 -55 62 -77 11 -24 31 -47 51 -58 l33
-19 -25 21 c-14 11 -28 21 -32 21 -5 0 -8 6 -8 13 0 24 -58 101 -95 126 -58
39 -102 84 -119 121 -18 40 -106 167 -106 153z"/>
<path d="M2291 4184 c0 -11 3 -14 6 -6 3 7 2 16 -1 19 -3 4 -6 -2 -5 -13z"/>
<path d="M2301 4124 c0 -22 6 -49 14 -60 8 -10 15 -27 15 -37 0 -10 12 -34 26
-53 26 -34 57 -44 70 -23 3 6 25 19 48 30 22 10 30 16 16 13 -14 -3 -37 -14
-52 -25 -15 -10 -33 -19 -41 -19 -17 0 -57 54 -57 78 0 10 -5 23 -12 30 -7 7
-15 33 -19 60 l-6 47 -2 -41z"/>
<path d="M7721 4030 c0 -3 6 -27 14 -54 13 -44 13 -52 0 -80 -15 -29 -15 -30
2 -14 21 21 21 70 0 118 -9 19 -16 33 -16 30z"/>
<path d="M4177 3677 c-25 -10 -28 -15 -23 -42 4 -16 9 -61 12 -100 5 -62 61
-241 72 -230 2 2 -10 38 -27 81 -20 49 -31 94 -31 126 0 27 -5 70 -12 96 -8
31 -8 47 -1 49 11 4 51 33 43 32 -3 -1 -18 -6 -33 -12z"/>
<path d="M12535 3660 c-13 -5 -1 -6 32 -3 63 7 75 -1 92 -59 15 -49 42 -110
48 -104 2 2 -3 16 -11 32 -8 16 -20 47 -26 69 -18 57 -37 75 -79 74 -20 0 -45
-4 -56 -9z"/>
<path d="M12153 3629 c-5 -5 -37 -21 -69 -34 -32 -14 -52 -25 -44 -25 8 0 40
12 70 27 30 15 66 30 80 34 l25 7 -25 1 c-15 0 -31 -4 -37 -10z"/>
<path d="M12568 3633 c50 -10 10 -70 -51 -76 l-42 -4 42 -1 c34 -2 45 3 63 25
26 34 22 58 -10 60 -22 1 -22 1 -2 -4z"/>
<path d="M12250 3616 c68 -26 75 -27 40 -7 -19 11 -44 20 -55 20 -12 0 -7 -5
15 -13z"/>
<path d="M12508 3623 c6 -2 18 -2 25 0 6 3 1 5 -13 5 -14 0 -19 -2 -12 -5z"/>
<path d="M5634 3587 c-21 -11 -64 -39 -94 -63 -30 -23 -68 -44 -85 -47 l-30
-4 29 -2 c20 -1 48 14 95 48 79 58 120 79 144 74 23 -6 22 3 -1 9 -10 3 -36
-4 -58 -15z"/>
<path d="M12338 3583 c7 -3 16 -2 19 1 4 3 -2 6 -13 5 -11 0 -14 -3 -6 -6z"/>
<path d="M12378 3573 c7 -3 16 -2 19 1 4 3 -2 6 -13 5 -11 0 -14 -3 -6 -6z"/>
<path d="M11988 3563 c6 -2 18 -2 25 0 6 3 1 5 -13 5 -14 0 -19 -2 -12 -5z"/>
<path d="M12413 3548 c3 -13 11 -70 17 -128 l12 -105 -45 -95 c-35 -77 -100
-170 -321 -467 l-277 -372 -242 269 c-235 263 -243 270 -280 270 -23 0 -40 5
-43 14 -3 8 -19 18 -34 21 -25 6 -30 13 -41 61 -7 30 -16 57 -21 60 -26 16 21
123 65 149 45 26 151 105 142 105 -5 0 -31 -17 -59 -38 -28 -21 -67 -48 -87
-60 -25 -15 -43 -38 -58 -71 -25 -59 -26 -73 -7 -109 8 -15 17 -44 21 -65 5
-26 12 -37 25 -37 9 0 29 -9 43 -20 14 -11 39 -20 56 -20 27 0 56 -29 271
-267 132 -148 243 -277 245 -288 3 -11 23 -175 44 -365 21 -190 39 -328 40
-307 1 45 24 50 68 13 18 -15 34 -21 42 -17 18 11 56 97 71 161 16 69 34 104
62 124 12 9 18 16 12 16 -13 0 -48 -37 -61 -65 -6 -11 -15 -42 -22 -70 -13
-56 -51 -146 -66 -157 -5 -4 -18 2 -28 13 -10 11 -31 22 -47 26 -33 6 -30 -9
-60 258 -11 99 -25 213 -30 253 -19 138 -38 102 261 503 203 273 284 389 322
466 l51 102 -15 125 -15 125 26 4 c20 3 18 4 -9 6 -30 1 -33 -1 -28 -21z"/>
<path d="M11901 3520 c-23 -22 -39 -40 -34 -40 5 0 22 14 39 31 16 17 38 35
49 39 14 6 15 9 5 9 -9 1 -35 -17 -59 -39z"/>
<path d="M11830 3470 c-9 -6 -10 -10 -3 -10 6 0 15 5 18 10 8 12 4 12 -15 0z"/>
<path d="M12711 3464 c0 -11 3 -14 6 -6 3 7 2 16 -1 19 -3 4 -6 -2 -5 -13z"/>
<path d="M5375 3446 c-10 -15 -15 -39 -12 -63 l4 -38 2 40 c2 42 16 68 41 78
12 4 12 6 -2 6 -10 1 -25 -10 -33 -23z"/>
<path d="M11763 3453 c9 -2 25 -2 35 0 9 3 1 5 -18 5 -19 0 -27 -2 -17 -5z"/>
<path d="M11685 3440 c-25 -11 1 -11 35 0 20 6 21 8 5 8 -11 0 -29 -3 -40 -8z"/>
<path d="M11605 3420 c-25 -11 1 -11 35 0 20 6 21 8 5 8 -11 0 -29 -3 -40 -8z"/>
<path d="M11475 3375 c-40 -19 -16 -19 26 0 19 8 27 14 19 14 -8 0 -28 -7 -45
-14z"/>
<path d="M7762 3308 c34 -88 71 -168 78 -168 4 0 -6 26 -21 58 -16 31 -31 71
-35 87 -7 29 -6 29 39 -18 62 -63 81 -93 73 -114 -6 -15 -5 -16 6 -5 10 10 8
21 -12 57 -14 25 -30 45 -36 45 -6 0 -18 10 -27 23 -16 24 -75 87 -81 87 -2 0
5 -24 16 -52z"/>
<path d="M11410 3350 c-8 -5 -10 -10 -5 -10 6 0 17 5 25 10 8 5 11 10 5 10 -5
0 -17 -5 -25 -10z"/>
<path d="M12711 3330 c-2 -59 -17 -97 -67 -161 -48 -63 -94 -144 -94 -167 0
-7 -10 -30 -22 -51 -21 -37 -21 -42 -9 -105 12 -61 12 -67 -8 -100 -12 -18
-28 -39 -36 -46 -8 -7 -15 -17 -15 -22 0 -12 53 50 69 80 10 19 10 37 0 89
-12 62 -12 67 9 104 12 21 22 43 22 49 0 24 41 99 94 169 55 73 75 130 63 177
-3 11 -5 3 -6 -16z"/>
<path d="M11368 3333 c7 -3 16 -2 19 1 4 3 -2 6 -13 5 -11 0 -14 -3 -6 -6z"/>
<path d="M4240 3285 c0 -9 37 -51 89 -99 11 -10 22 -32 24 -50 l4 -31 1 31 c2
29 -15 54 -60 90 -8 7 -24 25 -36 40 -12 16 -21 25 -22 19z"/>
<path d="M12745 3163 c-5 -5 -17 -17 -25 -28 -12 -17 -10 -16 11 3 30 26 56
28 63 5 4 -14 4 -14 3 2 -2 21 -34 31 -52 18z"/>
<path d="M12762 3075 c-23 -48 -47 -58 -57 -24 -4 11 -9 18 -12 16 -2 -3 0
-15 7 -26 18 -35 44 -25 68 25 13 26 21 48 19 50 -2 2 -13 -17 -25 -41z"/>
<path d="M12701 3094 c0 -11 3 -14 6 -6 3 7 2 16 -1 19 -3 4 -6 -2 -5 -13z"/>
<path d="M4342 3070 c0 -19 2 -27 5 -17 2 9 2 25 0 35 -3 9 -5 1 -5 -18z"/>
<path d="M4332 3010 c0 -14 2 -19 5 -12 2 6 2 18 0 25 -3 6 -5 1 -5 -13z"/>
<path d="M11121 2983 c0 -12 -4 -30 -7 -40 -5 -17 -5 -17 6 0 6 10 9 28 7 40
-4 22 -4 22 -6 0z"/>
<path d="M4302 2947 c-12 -17 -36 -50 -52 -71 -17 -21 -30 -48 -29 -60 1 -16
3 -13 10 9 4 17 29 54 54 84 25 29 45 57 45 62 0 14 -3 11 -28 -24z"/>
<path d="M7916 2901 c5 -9 32 -41 58 -71 27 -30 66 -80 86 -110 21 -30 65 -77
98 -105 34 -27 73 -69 88 -92 32 -50 42 -57 18 -12 -9 18 -41 55 -72 83 -88
81 -104 98 -150 161 -37 52 -155 187 -126 146z"/>
<path d="M11105 2895 c2 -16 8 -50 14 -75 15 -66 13 -171 -4 -200 -8 -14 -14
-34 -15 -44 0 -11 -12 -34 -26 -53 -14 -18 -23 -41 -21 -51 4 -15 5 -15 6 1 0
10 12 33 26 51 14 18 25 41 25 52 1 10 7 30 15 44 24 43 18 159 -14 270 -9 31
-10 31 -6 5z"/>
<path d="M4252 2780 c14 -4 32 -11 40 -15 7 -3 4 1 -6 9 -11 9 -29 16 -40 15
-17 -1 -16 -2 6 -9z"/>
<path d="M4185 2660 c-13 -6 -2 -7 30 -3 28 3 52 7 54 9 9 8 -65 2 -84 -6z"/>
<path d="M12451 2644 c0 -11 8 -29 18 -38 16 -14 23 -15 41 -6 55 30 70 -32
18 -74 -53 -41 -68 -55 -68 -65 0 -4 25 15 55 43 54 50 65 75 45 106 -8 12
-14 13 -41 3 -37 -14 -55 -5 -62 30 -4 21 -4 21 -6 1z"/>
<path d="M4127 2632 c-24 -26 -21 -46 10 -83 22 -26 27 -41 25 -80 -2 -45 0
-50 39 -81 23 -18 50 -51 61 -73 24 -47 101 -165 106 -161 1 2 -15 30 -36 62
-22 33 -49 78 -60 100 -12 23 -39 56 -62 74 -37 30 -40 35 -38 79 2 39 -3 54
-25 80 -33 39 -34 65 -5 85 12 9 18 16 12 16 -6 0 -18 -8 -27 -18z"/>
<path d="M8286 2457 c3 -10 9 -15 12 -12 3 3 0 11 -7 18 -10 9 -11 8 -5 -6z"/>
<path d="M11063 2405 c0 -27 2 -38 4 -22 2 15 2 37 0 50 -2 12 -4 0 -4 -28z"/>
<path d="M12477 2426 c3 -4 18 -5 34 -2 27 5 29 3 29 -27 0 -29 -9 -94 -24
-172 -3 -16 1 -10 9 14 8 25 18 80 21 122 l7 77 -41 -1 c-22 -1 -38 -6 -35
-11z"/>
<path d="M8345 2350 c29 -55 45 -98 45 -121 0 -23 8 -46 21 -60 l21 -24 -16
27 c-9 15 -16 41 -16 58 0 30 -52 145 -84 185 -9 11 4 -18 29 -65z"/>
<path d="M11050 2317 c0 -36 -4 -40 -182 -206 -47 -45 -93 -81 -101 -81 -12 0
-27 -19 -27 -36 0 -2 12 -4 28 -3 l27 1 -25 7 -25 7 25 13 c23 13 115 95 238
214 42 41 52 57 52 84 0 18 -2 33 -5 33 -3 0 -5 -15 -5 -33z"/>
<path d="M12283 2203 c-7 -2 -13 -14 -12 -26 0 -21 0 -21 10 1 13 33 32 23 46
-24 6 -21 12 -32 12 -23 2 27 -20 79 -32 78 -7 0 -18 -3 -24 -6z"/>
<path d="M12502 2130 c0 -19 2 -27 5 -17 2 9 2 25 0 35 -3 9 -5 1 -5 -18z"/>
<path d="M12251 2121 c-7 -16 -11 -42 -8 -57 4 -28 4 -28 6 4 0 18 6 42 12 54
6 11 9 22 6 24 -2 3 -10 -9 -16 -25z"/>
<path d="M4372 2107 c-2 -36 0 -38 51 -61 28 -12 58 -30 66 -39 7 -10 18 -17
24 -17 18 0 -64 59 -98 70 -29 10 -34 16 -38 48 l-4 37 -1 -38z"/>
<path d="M8440 2112 c0 -25 29 -69 64 -96 20 -15 64 -55 98 -89 50 -51 54 -53
18 -12 -24 28 -66 69 -94 92 -28 24 -59 60 -68 80 -10 21 -18 32 -18 25z"/>
<path d="M12332 2053 c-2 -28 4 -36 38 -58 26 -16 43 -36 49 -57 6 -22 10 -26
10 -13 1 28 -24 62 -59 80 -21 11 -30 24 -33 47 l-4 33 -1 -32z"/>
<path d="M12513 2025 c0 -22 2 -30 4 -17 2 12 2 30 0 40 -3 9 -5 -1 -4 -23z"/>
<path d="M12230 2023 c0 -5 -10 -15 -22 -21 -13 -6 -18 -11 -12 -11 16 -1 50
27 41 35 -4 4 -7 3 -7 -3z"/>
<path d="M10667 1975 c-20 -14 -40 -25 -44 -25 -5 0 -19 -8 -32 -17 -23 -16
-23 -17 -5 -24 36 -13 125 22 137 55 12 31 -18 36 -56 11z m31 -22 c-25 -25
-108 -47 -94 -25 4 7 15 12 24 12 9 1 30 12 46 25 37 30 56 21 24 -12z"/>
<path d="M10828 1988 c7 -7 12 -29 12 -49 0 -31 -4 -38 -22 -42 -20 -5 -20 -5
2 -4 20 2 26 8 28 31 5 38 -6 76 -20 76 -9 0 -9 -3 0 -12z"/>
<path d="M12158 1983 c7 -3 16 -2 19 1 4 3 -2 6 -13 5 -11 0 -14 -3 -6 -6z"/>
<path d="M12489 1938 c-11 -35 -19 -43 -37 -42 -16 0 -20 -2 -12 -10 17 -17
43 6 58 49 7 21 11 40 8 42 -2 2 -10 -15 -17 -39z"/>
<path d="M10528 1930 c6 -8 12 -25 12 -38 0 -32 42 -102 61 -102 9 0 22 7 30
16 8 10 23 14 42 11 19 -2 32 2 40 13 7 10 28 27 47 39 40 24 33 28 -10 6 -16
-8 -34 -23 -39 -33 -7 -13 -18 -17 -39 -14 -18 2 -33 -2 -41 -12 -8 -9 -19
-16 -26 -16 -18 0 -55 62 -55 92 0 14 -8 32 -17 39 -15 11 -16 11 -5 -1z"/>
<path d="M4692 1914 c10 -10 20 -15 24 -12 3 4 -5 12 -18 18 -22 12 -22 12 -6
-6z"/>
<path d="M10446 1923 c-4 -5 -33 -11 -64 -14 l-57 -6 50 -1 c28 -1 61 5 75 13
14 8 20 14 14 15 -6 0 -14 -3 -18 -7z"/>
<path d="M4746 1887 c12 -6 41 -27 65 -45 24 -19 69 -47 99 -63 42 -23 69 -49
116 -112 34 -45 71 -101 82 -124 20 -38 68 -83 89 -83 4 0 -6 10 -24 21 -19
12 -47 48 -69 87 -20 37 -39 69 -43 72 -4 3 -26 30 -49 61 -31 41 -60 66 -112
94 -39 21 -88 54 -110 72 -21 18 -44 33 -52 33 -7 0 -4 -6 8 -13z"/>
<path d="M10280 1890 c-18 -12 -2 -12 25 0 13 6 15 9 5 9 -8 0 -22 -4 -30 -9z"/>
<path d="M10177 1819 c-55 -48 -74 -59 -105 -60 -20 -1 -48 -5 -62 -9 -15 -5
1 -6 40 -2 61 5 69 8 126 59 34 29 67 53 74 53 25 0 108 -80 115 -110 4 -17
15 -35 25 -40 10 -5 20 -20 24 -34 6 -25 106 -96 136 -96 8 0 39 -11 68 -25
64 -29 124 -32 257 -10 115 19 107 20 127 -15 9 -17 23 -30 30 -30 9 1 8 5 -3
13 -9 7 -18 21 -21 32 -4 24 -31 25 -196 5 -105 -13 -117 -13 -160 4 -26 10
-71 26 -100 37 -59 20 -132 73 -132 94 0 8 -7 21 -16 30 -9 9 -26 35 -38 58
-11 23 -31 47 -44 53 -12 6 -33 21 -46 33 -12 11 -24 21 -27 20 -2 0 -34 -27
-72 -60z"/>
<path d="M8694 1821 c25 -56 40 -71 66 -70 8 0 3 5 -11 10 -15 6 -30 22 -37
42 -6 18 -19 42 -27 52 -8 11 -4 -4 9 -34z"/>
<path d="M12454 1849 c-7 -8 -22 -38 -34 -66 -18 -43 -20 -56 -10 -68 18 -22
30 -18 30 10 0 14 7 36 16 50 18 28 16 97 -2 74z m-8 -74 c-9 -13 -16 -31 -16
-40 0 -8 -4 -15 -10 -15 -15 0 -12 12 12 66 15 34 23 43 26 31 2 -10 -3 -29
-12 -42z"/>
<path d="M8786 1822 c-3 -5 6 -15 20 -22 30 -16 26 -36 -7 -33 -22 3 -22 2 -5
-8 14 -9 22 -7 35 6 15 15 15 17 -4 31 -11 9 -19 20 -17 25 3 11 -15 12 -22 1z"/>
<path d="M8838 1823 c12 -2 30 -2 40 0 9 3 -1 5 -23 4 -22 0 -30 -2 -17 -4z"/>
<path d="M8908 1813 c7 -3 16 -2 19 1 4 3 -2 6 -13 5 -11 0 -14 -3 -6 -6z"/>
<path d="M8990 1800 c30 -4 68 -12 83 -18 45 -19 46 -12 2 8 -23 11 -61 18
-90 18 l-50 -1 55 -7z"/>
<path d="M9144 1761 c9 -14 96 -72 96 -63 0 4 -23 22 -51 40 -28 19 -48 29
-45 23z"/>
<path d="M9918 1733 c7 -3 16 -2 19 1 4 3 -2 6 -13 5 -11 0 -14 -3 -6 -6z"/>
<path d="M9810 1720 c-14 -4 -39 -8 -57 -9 -17 -1 -34 -5 -37 -9 -5 -8 27 -4
144 17 41 8 42 9 10 9 -19 0 -46 -4 -60 -8z"/>
<path d="M9240 1679 c0 -3 13 -30 30 -60 33 -59 42 -60 10 -1 -23 44 -40 69
-40 61z"/>
<path d="M11882 1620 c0 -14 2 -19 5 -12 2 6 2 18 0 25 -3 6 -5 1 -5 -13z"/>
<path d="M11823 1593 c9 -2 25 -2 35 0 9 3 1 5 -18 5 -19 0 -27 -2 -17 -5z"/>
<path d="M11738 1583 c12 -2 32 -2 45 0 12 2 2 4 -23 4 -25 0 -35 -2 -22 -4z"/>
<path d="M11658 1573 c12 -2 30 -2 40 0 9 3 -1 5 -23 4 -22 0 -30 -2 -17 -4z"/>
<path d="M11568 1563 c12 -2 32 -2 45 0 12 2 2 4 -23 4 -25 0 -35 -2 -22 -4z"/>
<path d="M11488 1553 c12 -2 30 -2 40 0 9 3 -1 5 -23 4 -22 0 -30 -2 -17 -4z"/>
<path d="M11398 1543 c12 -2 32 -2 45 0 12 2 2 4 -23 4 -25 0 -35 -2 -22 -4z"/>
<path d="M11323 1533 c9 -2 25 -2 35 0 9 3 1 5 -18 5 -19 0 -27 -2 -17 -5z"/>
<path d="M11228 1523 c12 -2 32 -2 45 0 12 2 2 4 -23 4 -25 0 -35 -2 -22 -4z"/>
<path d="M11153 1513 c9 -2 25 -2 35 0 9 3 1 5 -18 5 -19 0 -27 -2 -17 -5z"/>
<path d="M11068 1503 c12 -2 32 -2 45 0 12 2 2 4 -23 4 -25 0 -35 -2 -22 -4z"/>
<path d="M5225 1450 c11 -5 29 -8 40 -8 16 0 15 2 -5 8 -34 11 -60 11 -35 0z"/>
<path d="M11033 1410 c0 -30 2 -43 4 -27 2 15 2 39 0 55 -2 15 -4 2 -4 -28z"/>
<path d="M5316 1426 c18 -8 35 -19 38 -25 4 -6 22 -18 39 -27 l32 -15 -25 21
c-40 34 -84 60 -100 60 -8 -1 -1 -7 16 -14z"/>
<path d="M5867 1298 c125 -128 182 -181 223 -205 25 -14 70 -50 100 -78 54
-52 106 -85 132 -85 7 0 -9 11 -37 24 -27 13 -70 45 -95 71 -25 25 -58 54 -75
62 -33 17 -175 134 -175 143 0 13 -72 91 -93 101 -14 6 -6 -6 20 -33z"/>
<path d="M11043 1290 c0 -30 2 -43 4 -27 2 15 2 39 0 55 -2 15 -4 2 -4 -28z"/>
<path d="M11028 1213 c7 -3 16 -2 19 1 4 3 -2 6 -13 5 -11 0 -14 -3 -6 -6z"/>
<path d="M10938 1203 c12 -2 32 -2 45 0 12 2 2 4 -23 4 -25 0 -35 -2 -22 -4z"/>
<path d="M6348 923 c7 -3 16 -2 19 1 4 3 -2 6 -13 5 -11 0 -14 -3 -6 -6z"/>
<path d="M6386 909 c2 -4 26 -11 52 -14 72 -10 288 -106 352 -157 19 -15 39
-28 45 -28 5 0 -3 9 -19 19 -16 11 -33 27 -38 35 -5 9 -14 16 -21 16 -7 0 -39
13 -72 29 -107 53 -199 88 -252 98 -29 5 -50 6 -47 2z"/>
<path d="M11270 851 c0 -7 20 -21 44 -32 25 -10 47 -25 49 -32 4 -7 6 -6 6 5
1 9 -12 20 -31 27 -17 6 -40 19 -50 28 -12 10 -18 12 -18 4z"/>
<path d="M11352 745 c0 -16 2 -22 5 -12 2 9 2 23 0 30 -3 6 -5 -1 -5 -18z"/>
<path d="M6958 699 c76 -6 125 -15 150 -28 21 -11 60 -24 88 -29 27 -6 60 -13
74 -17 20 -5 19 -3 -5 8 -16 8 -50 17 -73 21 -24 3 -61 16 -83 27 -30 15 -65
20 -152 24 l-112 4 113 -10z"/>
<path d="M11360 694 c0 -11 -5 -25 -12 -32 -9 -9 -9 -12 0 -12 13 0 28 47 18
57 -3 4 -6 -3 -6 -13z"/>
<path d="M9188 626 c-14 -33 -6 -51 31 -64 37 -13 42 -6 6 8 -32 12 -42 37
-22 57 19 19 57 8 57 -17 0 -10 3 -25 6 -33 6 -15 29 -11 99 19 16 7 33 10 37
8 11 -7 10 -31 -2 -37 -6 -3 -5 -4 2 -3 16 3 21 27 9 45 -7 11 -14 11 -42 -2
-19 -9 -49 -18 -66 -22 -30 -6 -33 -5 -33 19 0 46 -63 63 -82 22z"/>
<path d="M11263 643 c15 -2 37 -2 50 0 12 2 0 4 -28 4 -27 0 -38 -2 -22 -4z"/>
<path d="M11168 633 c12 -2 32 -2 45 0 12 2 2 4 -23 4 -25 0 -35 -2 -22 -4z"/>
<path d="M11073 623 c15 -2 37 -2 50 0 12 2 0 4 -28 4 -27 0 -38 -2 -22 -4z"/>
<path d="M7329 610 c20 -5 49 -25 76 -54 23 -25 50 -46 61 -45 16 0 15 2 -5
10 -13 5 -43 30 -66 54 -32 35 -48 45 -71 44 l-29 -1 34 -8z"/>
<path d="M10978 613 c12 -2 30 -2 40 0 9 3 -1 5 -23 4 -22 0 -30 -2 -17 -4z"/>
<path d="M10873 603 c15 -2 37 -2 50 0 12 2 0 4 -28 4 -27 0 -38 -2 -22 -4z"/>
<path d="M10778 593 c12 -2 32 -2 45 0 12 2 2 4 -23 4 -25 0 -35 -2 -22 -4z"/>
<path d="M10732 578 c-14 -18 -73 -138 -68 -138 3 0 22 34 44 75 39 74 44 87
24 63z"/>
<path d="M9350 552 c0 -14 23 -32 40 -31 8 0 4 5 -10 10 -20 8 -22 12 -10 19
13 8 12 10 -2 10 -10 0 -18 -4 -18 -8z"/>
<path d="M9475 541 c-17 -7 -16 -9 9 -15 16 -4 31 -5 34 -1 3 3 -3 6 -14 7
-10 0 1 4 26 8 l45 7 -40 1 c-22 0 -49 -3 -60 -7z"/>
<path d="M9168 533 c6 -2 18 -2 25 0 6 3 1 5 -13 5 -14 0 -19 -2 -12 -5z"/>
<path d="M9225 530 c-19 -8 -19 -9 2 -9 12 -1 25 4 28 9 7 12 -2 12 -30 0z"/>
<path d="M9051 505 c-18 -13 -42 -39 -53 -57 l-19 -33 21 25 c29 36 32 39 65
65 39 31 30 31 -14 0z"/>
<path d="M9118 523 c6 -2 18 -2 25 0 6 3 1 5 -13 5 -14 0 -19 -2 -12 -5z"/>
<path d="M9468 500 c52 -24 154 -51 147 -40 -3 4 -22 11 -42 15 -21 3 -58 15
-82 26 -24 10 -49 19 -55 19 -6 0 9 -9 32 -20z"/>
<path d="M9566 502 c23 -9 50 -24 60 -32 18 -14 18 -14 5 3 -15 18 -74 47 -95
46 -6 0 8 -8 30 -17z"/>
<path d="M9670 465 c0 -8 124 -88 138 -88 6 0 12 -4 12 -9 0 -4 5 -8 11 -8 6
0 -1 16 -15 35 -15 19 -23 35 -19 35 43 0 267 -210 320 -300 9 -16 33 -37 52
-46 19 -9 53 -30 75 -45 21 -16 43 -29 49 -29 12 0 -91 70 -120 81 -12 4 -41
34 -64 66 -64 86 -226 241 -282 270 -27 13 -51 22 -53 20 -2 -2 5 -15 16 -30
11 -14 20 -28 20 -31 0 -7 -76 40 -106 66 -20 17 -34 23 -34 13z"/>
<path d="M7650 453 c8 -4 34 -14 58 -24 23 -10 42 -16 42 -13 0 7 -89 44 -103
43 -7 0 -5 -3 3 -6z"/>
<path d="M10595 324 c-30 -59 -54 -108 -52 -110 2 -2 29 46 61 106 32 61 55
110 53 110 -3 0 -31 -48 -62 -106z"/>
<path d="M8875 404 c-21 -8 -48 -23 -60 -33 -11 -10 -48 -31 -82 -47 -34 -15
-61 -30 -59 -32 7 -6 132 56 145 72 7 8 35 22 62 31 27 9 49 18 49 21 0 6 -12
4 -55 -12z"/>
<path d="M7790 390 c20 -11 55 -19 81 -20 29 0 51 -6 59 -15 7 -8 17 -15 23
-15 5 0 2 9 -8 20 -13 15 -31 20 -69 20 -28 1 -62 7 -76 15 -14 8 -29 14 -35
14 -5 0 6 -8 25 -19z"/>
<path d="M8046 331 c68 -5 93 -12 153 -43 40 -21 77 -38 84 -38 6 0 -29 20
-78 45 -84 42 -95 45 -165 43 l-75 -1 81 -6z"/>
<path d="M8605 257 c-40 -25 -65 -33 -120 -38 l-70 -6 64 -1 c57 -2 70 2 122
34 33 19 59 37 59 40 0 7 -2 5 -55 -29z"/>
<path d="M8355 235 c52 -19 70 -18 26 0 -18 8 -41 15 -50 15 -9 -1 2 -7 24
-15z"/>
<path d="M10530 186 c0 -36 -140 -164 -193 -176 -30 -8 -30 -8 -5 -9 30 -1 99
50 166 122 36 40 54 77 37 77 -3 0 -5 -6 -5 -14z"/>
</g>
</svg>
